<svg width="32" height="32" viewBox="0 0 32 32" fill="none" xmlns="http://www.w3.org/2000/svg">
<path d="M31.4518 26.2764C31.1605 29.0054 29.0053 31.1611 26.2761 31.4522C19.4319 32.1826 12.5677 32.1826 5.72381 31.4522C2.99459 31.1609 0.839102 29.0054 0.547845 26.2764C-0.182615 19.4325 -0.182615 12.5681 0.547845 5.72418C0.839102 2.99496 2.99459 0.839468 5.72357 0.548212C12.5675 -0.182247 19.4319 -0.182247 26.2761 0.548212C29.0053 0.839468 31.1605 2.99496 31.4518 5.72418C32.1822 12.5681 32.1822 19.4323 31.4518 26.2764Z" fill="url(#paint0_radial_181_272)"/>
<path d="M29.7113 25.119C29.453 27.5406 27.5404 29.4534 25.1186 29.7119C19.0454 30.3599 12.9542 30.3599 6.88101 29.7119C4.45941 29.4534 2.54659 27.5406 2.28805 25.119C1.64011 19.0458 1.64011 12.9545 2.28805 6.8816C2.54659 4.45975 4.45941 2.54693 6.88101 2.28863C12.9542 1.64044 19.0454 1.64044 25.1183 2.28863C27.5402 2.54693 29.453 4.45975 29.7113 6.8816C30.3595 12.9545 30.3595 19.0458 29.7113 25.119Z" fill="url(#paint1_linear_181_272)"/>
<path d="M0.479492 6.38745C0.501465 6.16626 0.524169 5.94508 0.547851 5.72389C0.839107 2.99494 2.9946 0.839462 5.72381 0.548207C12.5677 -0.182247 19.4321 -0.182247 26.2761 0.548207C29.0053 0.839462 31.1605 2.99494 31.4518 5.72389C31.4755 5.94508 31.4982 6.16626 31.5204 6.38745H0.479492Z" fill="url(#paint2_linear_181_272)"/>
<path d="M31.4518 5.72412C31.8444 9.40158 32.0255 13.0849 31.9962 16.7677L24.6818 24.0821C23.768 25.1253 22.4333 25.7764 20.865 25.8328C17.6397 25.949 14.4041 25.9432 11.1783 25.8323C8.49918 25.74 6.62566 23.9393 6.1452 21.2926C6.06048 20.8253 6.0097 20.3519 5.94305 19.8812V12.122C5.97992 11.8705 6.03412 11.6203 6.05096 11.3674C6.15838 9.75753 6.82 8.37864 7.87931 7.44578L15.3226 0.00274277C18.9754 -0.022892 22.6284 0.158747 26.2761 0.548147C29.0053 0.839405 31.1605 2.9949 31.4518 5.72412Z" fill="url(#paint3_linear_181_272)"/>
<path d="M31.4518 5.72389C31.1608 2.99515 29.0048 0.839161 26.2761 0.548147C22.6289 0.158991 18.9751 -0.0228939 15.3228 0.00274086L7.89078 7.43481C8.75234 6.68067 9.87538 6.22145 11.1786 6.17237C14.4036 6.05128 17.6399 6.05445 20.865 6.17066C23.782 6.27613 25.8928 8.43505 25.9839 11.352C26.081 14.4492 26.081 17.5544 25.9839 20.6515C25.9423 21.9972 25.4699 23.1813 24.6867 24.0773L31.9965 16.7675C32.0253 13.0852 31.8441 9.40135 31.4518 5.72389Z" fill="url(#paint4_linear_181_272)"/>
<path d="M19.7757 19.4652C18.8387 20.4855 17.4942 21.1256 15.9998 21.1256C13.1693 21.1256 10.8744 18.8307 10.8744 16.0002C10.8744 14.5058 11.5145 13.1613 12.5348 12.2243L24.3933 0.365845C25.021 0.42053 25.6486 0.481321 26.2758 0.548216C29.005 0.839472 31.1605 2.99496 31.4518 5.72418C31.5187 6.35137 31.5795 6.97905 31.6342 7.60673L19.7757 19.4652Z" fill="url(#paint5_linear_181_272)"/>
<path d="M31.9376 12.5532L22.3938 22.0969C22.1711 22.3892 21.8203 22.5789 21.4245 22.5789C20.7512 22.5789 20.2051 22.033 20.2051 21.3594C20.2051 20.9636 20.3948 20.6128 20.687 20.3901L31.767 9.30981C31.8422 10.3906 31.899 11.4719 31.9376 12.5532Z" fill="url(#paint6_linear_181_272)"/>
<path d="M5.94305 19.8812C6.0097 20.3519 6.06048 20.8253 6.1452 21.2926C6.62542 23.9393 8.49918 25.74 11.1783 25.8323C14.4041 25.9432 17.6397 25.949 20.865 25.8328C23.781 25.7278 25.8928 23.5687 25.9838 20.6517C26.0807 17.5544 26.0807 14.4494 25.9838 11.3521C25.8928 8.43512 23.7817 6.27621 20.8652 6.17099C17.6399 6.05453 14.4036 6.05161 11.1786 6.1727C8.26212 6.28232 6.24603 8.44635 6.05096 11.3677C6.03412 11.6204 5.97992 11.8709 5.94305 12.1223C5.94305 14.7087 5.94305 17.2951 5.94305 19.8812ZM16.0025 7.89972C17.4786 7.89972 18.9561 7.85553 20.4302 7.90998C22.7414 7.99567 24.163 9.37504 24.217 11.6841C24.2839 14.5612 24.2839 17.4423 24.217 20.3197C24.163 22.6283 22.7405 24.0399 20.4302 24.0889C17.4978 24.1509 14.5623 24.1505 11.63 24.0889C9.3373 24.0408 7.91154 22.6578 7.84928 20.3746C7.77018 17.4611 7.77018 14.5424 7.84928 11.6289C7.91154 9.34599 9.3373 7.99494 11.6302 7.90998C13.0858 7.85578 14.545 7.89972 16.0025 7.89972Z" fill="url(#paint7_linear_181_272)"/>
<path d="M5.94305 19.8812C6.0097 20.3519 6.06048 20.8253 6.1452 21.2926C6.62542 23.9393 8.49918 25.74 11.1783 25.8323C14.4041 25.9432 17.6397 25.949 20.865 25.8328C23.781 25.7278 25.8928 23.5687 25.9838 20.6517C26.0807 17.5544 26.0807 14.4494 25.9838 11.3521C25.8928 8.43512 23.7817 6.27621 20.8652 6.17099C17.6399 6.05453 14.4036 6.05161 11.1786 6.1727C8.26212 6.28232 6.24603 8.44635 6.05096 11.3677C6.03412 11.6204 5.97992 11.8709 5.94305 12.1223C5.94305 14.7087 5.94305 17.2951 5.94305 19.8812ZM16.0025 7.89972C17.4786 7.89972 18.9561 7.85553 20.4302 7.90998C22.7414 7.99567 24.163 9.37504 24.217 11.6841C24.2839 14.5612 24.2839 17.4423 24.217 20.3197C24.163 22.6283 22.7405 24.0399 20.4302 24.0889C17.4978 24.1509 14.5623 24.1505 11.63 24.0889C9.3373 24.0408 7.91154 22.6578 7.84928 20.3746C7.77018 17.4611 7.77018 14.5424 7.84928 11.6289C7.91154 9.34599 9.3373 7.99494 11.6302 7.90998C13.0858 7.85578 14.545 7.89972 16.0025 7.89972Z" fill="white"/>
<path d="M15.9998 21.1254C13.1693 21.1254 10.8744 18.8307 10.8744 16.0002C10.8744 13.1694 13.1693 10.8748 15.9998 10.8748C18.8306 10.8748 21.1252 13.1694 21.1252 16.0002C21.1252 18.8307 18.8306 21.1254 15.9998 21.1254ZM15.9998 12.6394C14.1436 12.6394 12.639 14.144 12.639 16.0002C12.639 17.8564 14.1436 19.361 15.9998 19.361C17.856 19.361 19.3606 17.8564 19.3606 16.0002C19.3606 14.144 17.856 12.6394 15.9998 12.6394Z" fill="white"/>
<path d="M22.6437 21.3593C22.6437 20.6859 22.0979 20.14 21.4245 20.14C20.7512 20.14 20.2051 20.6859 20.2051 21.3593C20.2051 22.0329 20.7512 22.5789 21.4245 22.5789C22.0979 22.5789 22.6437 22.0329 22.6437 21.3593Z" fill="white"/>
<defs>
<radialGradient id="paint0_radial_181_272" cx="0" cy="0" r="1" gradientUnits="userSpaceOnUse" gradientTransform="translate(6.55974 4.03486) scale(35.29)">
<stop stop-color="#FAE100"/>
<stop offset="0.0544" stop-color="#FADC04"/>
<stop offset="0.1167" stop-color="#FBCE0E"/>
<stop offset="0.1829" stop-color="#FCB720"/>
<stop offset="0.2514" stop-color="#FE9838"/>
<stop offset="0.3054" stop-color="#FF7950"/>
<stop offset="0.4922" stop-color="#FF1C74"/>
<stop offset="1" stop-color="#6C1CD1"/>
</radialGradient>
<linearGradient id="paint1_linear_181_272" x1="12.2731" y1="18.0964" x2="-41.938" y2="48.5902" gradientUnits="userSpaceOnUse">
<stop stop-color="#A1B5D8" stop-opacity="0"/>
<stop offset="0.3094" stop-color="#90A2BD" stop-opacity="0.309804"/>
<stop offset="0.7554" stop-color="#7C8B9C" stop-opacity="0.756863"/>
<stop offset="1" stop-color="#748290"/>
</linearGradient>
<linearGradient id="paint2_linear_181_272" x1="15.9998" y1="3.75241" x2="15.9998" y2="-1.23548" gradientUnits="userSpaceOnUse">
<stop stop-color="#FAE100" stop-opacity="0"/>
<stop offset="0.3068" stop-color="#FCA800" stop-opacity="0.305882"/>
<stop offset="0.6275" stop-color="#FE7300" stop-opacity="0.627451"/>
<stop offset="0.8685" stop-color="#FF5200" stop-opacity="0.866667"/>
<stop offset="1" stop-color="#FF4500"/>
</linearGradient>
<linearGradient id="paint3_linear_181_272" x1="14.1794" y1="17.8659" x2="6.25996" y2="25.7853" gradientUnits="userSpaceOnUse">
<stop stop-color="#833AB4" stop-opacity="0"/>
<stop offset="1" stop-color="#833AB4"/>
</linearGradient>
<linearGradient id="paint4_linear_181_272" x1="21.931" y1="2.73231" x2="17.9783" y2="21.3665" gradientUnits="userSpaceOnUse">
<stop stop-color="#833AB4" stop-opacity="0"/>
<stop offset="1" stop-color="#833AB4"/>
</linearGradient>
<linearGradient id="paint5_linear_181_272" x1="23.435" y1="8.56496" x2="7.55873" y2="24.4413" gradientUnits="userSpaceOnUse">
<stop stop-color="#833AB4" stop-opacity="0"/>
<stop offset="1" stop-color="#833AB4"/>
</linearGradient>
<linearGradient id="paint6_linear_181_272" x1="24.6126" y1="18.1713" x2="19.3626" y2="23.4213" gradientUnits="userSpaceOnUse">
<stop stop-color="#833AB4" stop-opacity="0"/>
<stop offset="1" stop-color="#833AB4"/>
</linearGradient>
<linearGradient id="paint7_linear_181_272" x1="22.3534" y1="22.3095" x2="9.40884" y2="9.36493" gradientUnits="userSpaceOnUse">
<stop stop-color="#833AB4"/>
<stop offset="0.0922" stop-color="#9C3495"/>
<stop offset="0.2927" stop-color="#DC2546"/>
<stop offset="0.392" stop-color="#FD1D1D"/>
<stop offset="0.5589" stop-color="#FC6831"/>
<stop offset="0.6887" stop-color="#FC9B40"/>
<stop offset="0.7521" stop-color="#FCAF45"/>
<stop offset="0.7806" stop-color="#FDB750"/>
<stop offset="0.8656" stop-color="#FECB6A"/>
<stop offset="0.9415" stop-color="#FFD87A"/>
<stop offset="1" stop-color="#FFDC80"/>
</linearGradient>
</defs>
</svg>
