<svg width="33" height="32" viewBox="0 0 33 32" fill="none" xmlns="http://www.w3.org/2000/svg">
<path d="M26.7764 31.4521C19.9324 32.1826 13.0676 32.1826 6.22363 31.4521C3.49463 31.1609 1.33911 29.0054 1.04785 26.2761C0.317383 19.4321 0.317383 12.5676 1.04785 5.72363C1.33911 2.99463 3.49463 0.839111 6.22363 0.547852C13.0676 -0.182617 19.9321 -0.182617 26.7761 0.547852C29.5054 0.839111 31.6609 2.99463 31.9521 5.72363C32.6826 12.5676 32.6826 19.4321 31.9521 26.2761C31.6609 29.0054 29.5056 31.1609 26.7764 31.4521Z" fill="url(#paint0_linear_181_301)"/>
<path d="M30.2117 6.88111C29.9534 4.45948 28.0408 2.54663 25.6189 2.28809C19.5457 1.64014 13.4543 1.64014 7.3811 2.28809C4.95947 2.54663 3.04663 4.45948 2.78809 6.88111C2.14014 12.9544 2.14014 19.0457 2.78809 25.1187C3.04663 27.5406 4.95947 29.4534 7.3811 29.7117C13.4543 30.3599 19.5457 30.3599 25.6187 29.7117C28.0405 29.4534 29.9534 27.5406 30.2117 25.1187C30.8599 19.0457 30.8599 12.9544 30.2117 6.88111Z" fill="url(#paint1_linear_181_301)"/>
<path d="M0.979492 25.6127C1.00146 25.8339 1.02417 26.0551 1.04785 26.2763C1.33911 29.0053 3.49463 31.1609 6.22388 31.4521C13.0679 32.1826 19.9324 32.1826 26.7764 31.4521C29.5056 31.1609 31.6609 29.0053 31.9521 26.2763C31.9758 26.0551 31.9985 25.8339 32.0208 25.6127H0.979492Z" fill="url(#paint2_linear_181_301)"/>
<path d="M32.4932 14.8754L25.8508 8.23328C25.1064 8.65882 24.4504 8.8949 23.9563 9.02576C23.6785 9.10023 23.4517 9.14075 23.2886 9.16297C22.5395 8.39514 21.4937 7.91833 20.3359 7.91833C18.0581 7.91833 16.2112 9.76502 16.2112 12.0434C16.2112 12.1256 16.2134 12.2069 16.2187 12.288C16.2297 12.4855 16.2549 12.6796 16.2937 12.8683C15.3428 12.8542 12.252 12.6002 9.3042 10.0734C9.30395 10.0734 9.30395 10.0731 9.30395 10.0731H9.30371L7.91357 8.68274C7.91357 8.68274 6.28271 11.5292 8.68042 13.6891C8.78564 13.8065 8.90137 13.9225 9.02808 14.0365C9.03809 14.0478 9.04858 14.0587 9.05859 14.07C8.7439 14.0487 7.79736 13.9545 7.24951 13.5675C7.24951 13.5675 7.1394 15.3073 8.58887 16.5881L9.75928 17.7685C9.40283 17.798 9.00854 17.7909 8.73437 17.6708C8.73437 17.6708 8.97705 18.7013 9.91504 19.5261L11.5547 21.1743C10.571 21.7473 8.84912 22.4643 6.58252 22.2812L16.5291 32C19.9465 31.999 23.364 31.8164 26.7764 31.4521C29.5056 31.1609 31.6611 29.0054 31.9524 26.2763C32.3574 22.4799 32.5374 18.6772 32.4932 14.8754Z" fill="url(#paint3_linear_181_301)"/>
<path d="M26.4177 9.83534C25.7097 10.2057 24.6433 10.3768 24.2898 10.4262C24.2869 10.4091 24.2839 10.3927 24.281 10.3764C25.4829 9.63295 25.8508 8.23328 25.8508 8.23328C25.1064 8.65882 24.4504 8.8949 23.9563 9.02577C23.6785 9.10023 23.4517 9.14051 23.2886 9.16297C22.5396 8.3949 21.4937 7.91833 20.3359 7.91833C18.0581 7.91833 16.2112 9.76478 16.2112 12.0434C16.2112 12.1254 16.2134 12.2069 16.2188 12.2878C16.2297 12.4853 16.2549 12.6794 16.2937 12.8681C15.1912 12.8517 11.2114 12.5136 7.91357 8.68274C7.91357 8.68274 6.07715 11.8869 9.16455 14.0756C9.16455 14.0756 7.91357 14.0365 7.24951 13.5675C7.24951 13.5675 7.0542 16.655 10.6101 17.6315C10.6101 17.6315 9.35986 17.9445 8.73413 17.6708C8.73413 17.6708 9.35962 20.3281 12.4858 20.5239C12.4858 20.5239 10.2437 22.5766 6.58228 22.2812C8.38306 23.4214 10.5181 24.0813 12.8071 24.0813C19.2434 24.0813 24.4612 18.8637 24.4612 12.4274C24.4612 12.3471 24.4604 12.2668 24.4587 12.1864C24.4604 12.1388 24.4612 12.0915 24.4612 12.0434C24.4612 12.0099 24.4604 11.9765 24.46 11.943C25.6499 11.15 26.4177 9.83534 26.4177 9.83534Z" fill="white"/>
<defs>
<linearGradient id="paint0_linear_181_301" x1="11.1246" y1="4.49914" x2="19.2183" y2="21.8159" gradientUnits="userSpaceOnUse">
<stop stop-color="#00C3FF"/>
<stop offset="1" stop-color="#00B0ED"/>
</linearGradient>
<linearGradient id="paint1_linear_181_301" x1="23.2677" y1="19.6305" x2="-23.2242" y2="-5.30944" gradientUnits="userSpaceOnUse">
<stop stop-color="#00B0ED" stop-opacity="0"/>
<stop offset="1" stop-color="#00A2CE"/>
</linearGradient>
<linearGradient id="paint2_linear_181_301" x1="16.5" y1="27.3364" x2="16.5" y2="31.5295" gradientUnits="userSpaceOnUse">
<stop stop-color="#00B0ED" stop-opacity="0"/>
<stop offset="1" stop-color="#00A2CE"/>
</linearGradient>
<linearGradient id="paint3_linear_181_301" x1="31.0888" y1="30.1295" x2="15.4558" y2="14.4966" gradientUnits="userSpaceOnUse">
<stop stop-color="#00B0ED" stop-opacity="0"/>
<stop offset="1" stop-color="#00A2CE"/>
</linearGradient>
</defs>
</svg>
