<svg width="32" height="32" viewBox="0 0 32 32" fill="none" xmlns="http://www.w3.org/2000/svg">
<path d="M26.2764 31.4521C19.4324 32.1826 12.5676 32.1826 5.72363 31.4521C2.99463 31.1609 0.839111 29.0054 0.547852 26.2761C-0.182617 19.4321 -0.182617 12.5676 0.547852 5.72363C0.839111 2.99463 2.99463 0.839111 5.72363 0.547852C12.5676 -0.182617 19.4321 -0.182617 26.2761 0.547852C29.0054 0.839111 31.1609 2.99463 31.4521 5.72363C32.1826 12.5676 32.1826 19.4321 31.4521 26.2761C31.1609 29.0054 29.0056 31.1609 26.2764 31.4521Z" fill="url(#paint0_linear_181_316)"/>
<path d="M29.7117 6.88109C29.4534 4.45947 27.5408 2.54663 25.1189 2.28808C19.0457 1.64014 12.9543 1.64014 6.8811 2.28808C4.45947 2.54663 2.54663 4.45947 2.28809 6.88109C1.64014 12.9543 1.64014 19.0456 2.28809 25.1186C2.54663 27.5405 4.45947 29.4533 6.8811 29.7116C12.9543 30.3598 19.0457 30.3598 25.1187 29.7116C27.5405 29.4533 29.4534 27.5405 29.7117 25.1186C30.3599 19.0456 30.3599 12.9543 29.7117 6.88109Z" fill="url(#paint1_linear_181_316)"/>
<path d="M0.479492 25.6127C0.501465 25.8339 0.52417 26.0551 0.547852 26.2763C0.839111 29.0053 2.99463 31.1609 5.72388 31.4521C12.5679 32.1826 19.4324 32.1826 26.2764 31.4521C29.0056 31.1609 31.1609 29.0053 31.4521 26.2763C31.4758 26.0551 31.4985 25.8339 31.5208 25.6127H0.479492Z" fill="url(#paint2_linear_181_316)"/>
<path d="M21.5134 5.32947C18.7253 5.32947 16.4653 7.58971 16.4653 10.3778V14.1485H13.7485V18.8172L16.4653 21.2505V31.9985C19.7373 31.9827 23.009 31.8008 26.2764 31.4522C29.0056 31.1609 31.1609 29.0054 31.4521 26.2761C31.9956 21.1839 32.1345 16.0804 31.8691 10.9823L26.2163 5.32947H21.5134Z" fill="url(#paint3_linear_181_316)"/>
<path d="M16.4653 31.9985C18.3298 31.9895 20.1941 31.9263 22.0576 31.8091V18.8172H25.7681L26.2163 14.1485H22.0576V11.1839C22.0576 10.5292 22.5884 9.99839 23.2432 9.99839H26.2163V5.32947H21.5134C18.7253 5.32947 16.4653 7.58971 16.4653 10.3778V14.1485H13.7485V18.8172H16.4653V31.9985Z" fill="white"/>
<defs>
<linearGradient id="paint0_linear_181_316" x1="10.6246" y1="4.49914" x2="18.7183" y2="21.8159" gradientUnits="userSpaceOnUse">
<stop stop-color="#3457A0"/>
<stop offset="1" stop-color="#3B5998"/>
</linearGradient>
<linearGradient id="paint1_linear_181_316" x1="22.0702" y1="20.1708" x2="-5.90296" y2="0.950465" gradientUnits="userSpaceOnUse">
<stop stop-color="#3457A0" stop-opacity="0"/>
<stop offset="1" stop-color="#1F3F77"/>
</linearGradient>
<linearGradient id="paint2_linear_181_316" x1="16" y1="26.742" x2="16" y2="31.0723" gradientUnits="userSpaceOnUse">
<stop stop-color="#3457A0" stop-opacity="0"/>
<stop offset="1" stop-color="#1F3F77"/>
</linearGradient>
<linearGradient id="paint3_linear_181_316" x1="36.7361" y1="26.4269" x2="14.5255" y2="15.2274" gradientUnits="userSpaceOnUse">
<stop stop-color="#3457A0" stop-opacity="0"/>
<stop offset="0.3251" stop-color="#2A4C8D" stop-opacity="0.32549"/>
<stop offset="0.7045" stop-color="#22427D" stop-opacity="0.705882"/>
<stop offset="1" stop-color="#1F3F77"/>
</linearGradient>
</defs>
</svg>
