<svg width="33" height="32" viewBox="0 0 33 32" fill="none" xmlns="http://www.w3.org/2000/svg">
<path d="M26.7764 31.4521C19.9324 32.1826 13.0676 32.1826 6.22363 31.4521C3.49463 31.1609 1.33911 29.0054 1.04785 26.2761C0.317383 19.4321 0.317383 12.5676 1.04785 5.72363C1.33911 2.99463 3.49463 0.839111 6.22363 0.547852C13.0676 -0.182617 19.9321 -0.182617 26.7761 0.547852C29.5054 0.839111 31.6609 2.99463 31.9521 5.72363C32.6826 12.5676 32.6826 19.4321 31.9521 26.2761C31.6609 29.0054 29.5056 31.1609 26.7764 31.4521Z" fill="url(#paint0_linear_181_335)"/>
<path d="M30.2117 6.88109C29.9534 4.45947 28.0408 2.54663 25.6189 2.28808C19.5457 1.64014 13.4543 1.64014 7.3811 2.28808C4.95947 2.54663 3.04663 4.45947 2.78809 6.88109C2.14014 12.9543 2.14014 19.0456 2.78809 25.1186C3.04663 27.5405 4.95947 29.4533 7.3811 29.7116C13.4543 30.3598 19.5457 30.3598 25.6187 29.7116C28.0405 29.4533 29.9534 27.5405 30.2117 25.1186C30.8599 19.0456 30.8599 12.9543 30.2117 6.88109Z" fill="url(#paint1_linear_181_335)"/>
<path d="M0.979492 25.6127C1.00146 25.8339 1.02417 26.0551 1.04785 26.2763C1.33911 29.0053 3.49463 31.1609 6.22388 31.4521C13.0679 32.1826 19.9324 32.1826 26.7764 31.4521C29.5056 31.1609 31.6609 29.0053 31.9521 26.2763C31.9758 26.0551 31.9985 25.8339 32.0208 25.6127H0.979492Z" fill="url(#paint2_linear_181_335)"/>
<path d="M31.9521 26.2761C32.1965 23.9871 32.3586 21.6958 32.4395 19.4036L20.9111 7.87536C19.4153 6.23645 17.3992 6.0824 16.7041 6.0824H16.7031C16.6851 6.0824 16.668 6.0824 16.6516 6.08264C16.6516 6.08264 16.3135 6.08606 16.2866 6.08606C15.416 6.08606 12.4656 6.32849 11.0735 9.44932C10.6055 10.4994 10.7175 12.2826 10.8076 13.7154C10.8181 13.8844 10.8296 14.0599 10.8391 14.2293C10.7671 14.2691 10.6355 14.3189 10.4285 14.3189C10.1521 14.3189 9.82568 14.2315 9.458 14.0594C9.36034 14.0135 9.2478 13.9908 9.12353 13.9908C8.69286 13.9908 8.17797 14.274 8.09765 14.6961C8.05541 14.918 8.11694 15.2142 8.53246 15.5079C8.6018 15.618 10.3745 17.3951 10.5037 17.4947C10.3081 17.9209 9.00463 20.5391 6.31469 20.9822C6.09399 21.0186 5.93652 21.2151 5.94872 21.4383C5.95238 21.5047 5.96825 21.5708 5.99535 21.6348C6.05932 21.7842 6.18456 21.9214 6.37182 22.0479L16.3235 31.9992C19.8093 32.0056 23.2954 31.8237 26.7761 31.4521C29.5056 31.1609 31.6609 29.0054 31.9521 26.2761Z" fill="url(#paint3_linear_181_335)"/>
<path d="M16.6306 25.699C16.5774 25.699 16.5249 25.6975 16.4726 25.6948H16.4724C16.4392 25.6975 16.4043 25.699 16.3694 25.699C15.145 25.699 14.3594 25.1436 13.5994 24.6062C13.0747 24.2356 12.5796 23.8855 11.9963 23.7883C11.7117 23.7412 11.4282 23.7173 11.1543 23.7173C10.6611 23.7173 10.272 23.7935 9.98778 23.8491C9.81517 23.8828 9.666 23.9119 9.55297 23.9119C9.4348 23.9119 9.30663 23.8862 9.25097 23.696C9.20238 23.531 9.16747 23.3713 9.13378 23.217C9.04711 22.8193 8.98534 22.575 8.81884 22.5493C6.87694 22.2495 6.32128 21.8403 6.19726 21.5503C6.17968 21.5088 6.16967 21.4673 6.16747 21.426C6.16112 21.3145 6.23998 21.2161 6.35033 21.198C9.33519 20.7065 10.6738 17.6558 10.7295 17.5261C10.7309 17.5225 10.7327 17.519 10.7341 17.5154C10.917 17.1453 10.9526 16.8237 10.8408 16.5605C10.636 16.0776 9.96801 15.8655 9.52562 15.7251C9.41747 15.6909 9.31493 15.6584 9.23388 15.6267C8.35155 15.2778 8.27807 14.9197 8.31273 14.7371C8.37182 14.426 8.78759 14.2092 9.12352 14.2092C9.21581 14.2092 9.29686 14.2256 9.36522 14.2576C9.7622 14.4436 10.1199 14.5378 10.4287 14.5378C10.8552 14.5378 11.0412 14.3584 11.0642 14.335C11.0532 14.1328 11.0398 13.9219 11.0261 13.7041C10.9372 12.293 10.8269 10.5393 11.2734 9.53833C12.6116 6.53784 15.4494 6.30493 16.2871 6.30493C16.3086 6.30493 16.6545 6.30103 16.6545 6.30103L16.7041 6.30078C17.5439 6.30078 20.3879 6.53442 21.7268 9.53638C22.1733 10.5381 22.063 12.293 21.9739 13.7031L21.9702 13.7644C21.9577 13.9609 21.9458 14.1519 21.9358 14.3345C21.9573 14.3562 22.1284 14.5212 22.5151 14.5359H22.5156C22.8095 14.5247 23.1472 14.4309 23.5178 14.2573C23.6267 14.2068 23.7473 14.196 23.8293 14.196C23.9548 14.196 24.082 14.2202 24.1875 14.2644L24.1938 14.2668C24.4936 14.3733 24.6902 14.5833 24.6943 14.803C24.6982 15.0095 24.5405 15.3206 23.7661 15.6265C23.6858 15.658 23.5832 15.6904 23.4746 15.7251C23.032 15.8655 22.364 16.0774 22.1594 16.5601C22.0473 16.8235 22.0832 17.1445 22.2658 17.5151C22.2676 17.5186 22.2693 17.522 22.2707 17.5259C22.3264 17.6553 23.6638 20.7053 26.6501 21.1975C26.7602 21.2156 26.8391 21.314 26.833 21.4255C26.8305 21.4675 26.8203 21.5095 26.8025 21.5505C26.6794 21.8386 26.124 22.2471 24.1814 22.5474C24.0229 22.5715 23.9614 22.7783 23.8667 23.2122C23.832 23.3699 23.7973 23.5249 23.7492 23.688C23.708 23.8293 23.6198 23.8955 23.4714 23.8955H23.4472C23.3445 23.8955 23.198 23.8772 23.0127 23.8406C22.6838 23.7764 22.3149 23.717 21.8459 23.717C21.572 23.717 21.2886 23.741 21.0036 23.7881C20.4209 23.8853 19.926 24.2346 19.4023 24.605C18.6411 25.1436 17.8552 25.699 16.6306 25.699Z" fill="white"/>
<path d="M16.7041 6.51989C17.499 6.52014 20.2368 6.73327 21.5271 9.62583C21.9516 10.578 21.843 12.3036 21.7556 13.6898C21.7417 13.9095 21.7283 14.1224 21.7175 14.3262L21.7126 14.4136L21.7712 14.4788C21.7947 14.5052 22.0156 14.7359 22.5066 14.755L22.5149 14.7552L22.5229 14.755C22.8476 14.7427 23.2134 14.6419 23.6108 14.4556C23.6692 14.4283 23.7471 14.4151 23.8293 14.4151C23.9233 14.4151 24.0229 14.4327 24.1052 14.4674L24.1177 14.4722C24.3259 14.5452 24.4731 14.6829 24.4758 14.8074C24.4768 14.8782 24.4241 15.1314 23.6858 15.4232C23.6135 15.4517 23.5185 15.4818 23.4084 15.5167C22.9282 15.6693 22.2024 15.8995 21.958 16.4747C21.8203 16.7996 21.8577 17.1822 22.0696 17.6121C22.157 17.8157 23.5281 20.9053 26.6145 21.4138C26.6135 21.428 26.6101 21.4444 26.6018 21.4632C26.5493 21.5865 26.2168 22.0117 24.1482 22.3311C23.8242 22.3811 23.7449 22.7437 23.6528 23.1655C23.6199 23.3164 23.5859 23.4688 23.5393 23.6265C23.5254 23.6741 23.5227 23.677 23.4714 23.677C23.4643 23.677 23.4565 23.677 23.4473 23.677C23.3555 23.677 23.216 23.658 23.0544 23.6262C22.7612 23.5689 22.3591 23.4986 21.8459 23.4986C21.5593 23.4986 21.2639 23.5235 20.968 23.5725C20.3349 23.678 19.8198 24.0422 19.2744 24.4275C18.5422 24.9453 17.7854 25.4802 16.6306 25.4802C16.5803 25.4802 16.531 25.4788 16.4817 25.4763L16.4687 25.4756L16.4556 25.4768C16.4272 25.4793 16.3987 25.4802 16.3694 25.4802C15.2148 25.4802 14.4575 24.9453 13.7256 24.4277C13.1804 24.0422 12.665 23.678 12.0322 23.5725C11.7361 23.5235 11.4409 23.4986 11.1543 23.4986C10.6411 23.4986 10.239 23.5769 9.94555 23.6343C9.78417 23.666 9.64452 23.6929 9.55297 23.6929C9.47802 23.6929 9.47655 23.6887 9.46068 23.6345C9.4143 23.4768 9.38036 23.3206 9.3474 23.1699C9.25536 22.7478 9.17553 22.3831 8.85204 22.333C6.7832 22.0137 6.45092 21.5872 6.39843 21.4641C6.39013 21.4451 6.38671 21.4285 6.38598 21.4141C9.47216 20.9055 10.8433 17.8165 10.9304 17.6124C11.1426 17.1819 11.1802 16.7996 11.0425 16.4752C10.7983 15.8995 10.0723 15.6693 9.59179 15.5164C9.48168 15.4818 9.38671 15.4517 9.31444 15.4229C8.69067 15.1766 8.49901 14.9285 8.52782 14.7781C8.56078 14.6046 8.86132 14.4283 9.12377 14.4283C9.18285 14.4283 9.23437 14.4378 9.27245 14.4556C9.69872 14.6551 10.0879 14.7567 10.4287 14.7567C10.9651 14.7567 11.2041 14.5069 11.2295 14.4786L11.2876 14.4136L11.2827 14.3265C11.272 14.1231 11.2585 13.9102 11.2446 13.6905C11.1572 12.3043 11.0488 10.5802 11.4734 9.62754C12.7585 6.74572 15.4829 6.52356 16.2873 6.52356C16.3071 6.52356 16.6567 6.52014 16.6567 6.52014C16.6716 6.52014 16.6872 6.51989 16.7041 6.51989ZM16.7041 6.0824H16.7031C16.685 6.0824 16.668 6.0824 16.6516 6.08264C16.6516 6.08264 16.3135 6.08606 16.2866 6.08606C15.416 6.08606 12.4656 6.32849 11.0735 9.44956C10.6055 10.4994 10.7175 12.2826 10.8076 13.7154C10.8181 13.8846 10.8296 14.0599 10.8391 14.2293C10.7671 14.2694 10.6355 14.3189 10.4285 14.3189C10.1521 14.3189 9.82567 14.2318 9.458 14.0594C9.36034 14.0137 9.24779 13.9908 9.12353 13.9908C8.69286 13.9908 8.17797 14.274 8.09765 14.6964C8.03979 15.0003 8.17602 15.4439 9.15331 15.8299C9.24169 15.8648 9.34765 15.8985 9.45971 15.9339C9.86352 16.0621 10.4739 16.2557 10.6394 16.6458C10.7251 16.848 10.6909 17.1082 10.5378 17.4188C10.5347 17.4258 10.5312 17.4329 10.5281 17.44C10.4744 17.565 9.18261 20.5098 6.31469 20.982C6.09399 21.0183 5.93652 21.2151 5.94872 21.4383C5.95238 21.5047 5.96825 21.5708 5.99535 21.6348C6.21044 22.138 7.11864 22.5069 8.77196 22.7634C8.82714 22.8382 8.88451 23.1021 8.91991 23.263C8.95434 23.4216 8.98998 23.5852 9.04076 23.7581C9.09057 23.9277 9.21996 24.1306 9.55273 24.1306C9.68725 24.1306 9.84594 24.0996 10.0295 24.0635C10.3049 24.0098 10.6821 23.936 11.1543 23.936C11.416 23.936 11.6875 23.9588 11.9607 24.0042C12.4941 24.093 12.9475 24.4133 13.4724 24.7844C14.2241 25.3159 15.0754 25.9177 16.3694 25.9177C16.4048 25.9177 16.4407 25.9165 16.4758 25.9138C16.5181 25.9158 16.5725 25.9177 16.6304 25.9177C17.9248 25.9177 18.7759 25.3159 19.5271 24.7847C20.0532 24.4131 20.5061 24.0928 21.0395 24.0042C21.3125 23.9588 21.584 23.936 21.8459 23.936C22.2964 23.936 22.6526 23.9934 22.9707 24.0554C23.1699 24.0945 23.3301 24.1143 23.4473 24.1143L23.4595 24.1145H23.4714C23.717 24.1145 23.8906 23.9846 23.9592 23.7488C24.0093 23.5798 24.0449 23.4204 24.0801 23.2591C24.1152 23.0986 24.1723 22.8357 24.2275 22.7615C25.8811 22.5047 26.789 22.1365 27.0039 21.6355C27.0315 21.5713 27.0473 21.5047 27.0513 21.4378C27.0637 21.2146 26.906 21.0181 26.6855 20.9817C23.8161 20.5088 22.5254 17.5647 22.4717 17.4397C22.4687 17.4327 22.4656 17.4256 22.4619 17.4185C22.3088 17.108 22.2749 16.848 22.3606 16.6458C22.5261 16.2557 23.1362 16.0618 23.54 15.9339C23.6528 15.898 23.759 15.8643 23.8464 15.8299C24.5618 15.5474 24.9206 15.2003 24.9131 14.7987C24.907 14.483 24.6611 14.2015 24.2705 14.0621L24.2693 14.0616C24.1379 14.0072 23.9819 13.9774 23.8291 13.9774C23.7248 13.9774 23.5698 13.9915 23.4253 14.0592C23.0849 14.2186 22.779 14.3052 22.5156 14.3172C22.3408 14.3089 22.2263 14.265 22.1611 14.2291C22.1692 14.0836 22.1787 13.9339 22.1885 13.7774L22.1921 13.7166C22.2827 12.2828 22.395 10.4981 21.9265 9.44737C20.5339 6.32532 17.5771 6.0824 16.7041 6.0824Z" fill="#030303"/>
<defs>
<linearGradient id="paint0_linear_181_335" x1="11.1246" y1="4.49914" x2="19.2183" y2="21.8159" gradientUnits="userSpaceOnUse">
<stop stop-color="#FFFC00"/>
<stop offset="1" stop-color="#FFE600"/>
</linearGradient>
<linearGradient id="paint1_linear_181_335" x1="23.2677" y1="19.6304" x2="-23.2241" y2="-5.30958" gradientUnits="userSpaceOnUse">
<stop stop-color="#FFE600" stop-opacity="0"/>
<stop offset="1" stop-color="#FFCE00"/>
</linearGradient>
<linearGradient id="paint2_linear_181_335" x1="16.5" y1="27.3364" x2="16.5" y2="31.5295" gradientUnits="userSpaceOnUse">
<stop stop-color="#FFE600" stop-opacity="0"/>
<stop offset="1" stop-color="#FFCE00"/>
</linearGradient>
<linearGradient id="paint3_linear_181_335" x1="24.5369" y1="30.0334" x2="18.3255" y2="18.9281" gradientUnits="userSpaceOnUse">
<stop stop-color="#FFE600" stop-opacity="0"/>
<stop offset="1" stop-color="#FFCE00"/>
</linearGradient>
</defs>
</svg>
