<svg width="32" height="32" viewBox="0 0 32 32" fill="none" xmlns="http://www.w3.org/2000/svg">
<path d="M26.2764 31.4521C19.4324 32.1826 12.5676 32.1826 5.72363 31.4521C2.99463 31.1609 0.839111 29.0054 0.547852 26.2761C-0.182617 19.4321 -0.182617 12.5676 0.547852 5.72363C0.839111 2.99463 2.99463 0.839111 5.72363 0.547852C12.5676 -0.182617 19.4321 -0.182617 26.2761 0.547852C29.0054 0.839111 31.1609 2.99463 31.4521 5.72363C32.1826 12.5676 32.1826 19.4321 31.4521 26.2761C31.1609 29.0054 29.0056 31.1609 26.2764 31.4521Z" fill="url(#paint0_linear_181_353)"/>
<path d="M29.7117 6.88109C29.4534 4.45947 27.5408 2.54663 25.1189 2.28808C19.0457 1.64014 12.9543 1.64014 6.8811 2.28808C4.45947 2.54663 2.54663 4.45947 2.28809 6.88109C1.64014 12.9543 1.64014 19.0456 2.28809 25.1186C2.54663 27.5405 4.45947 29.4533 6.8811 29.7116C12.9543 30.3598 19.0457 30.3598 25.1187 29.7116C27.5405 29.4533 29.4534 27.5405 29.7117 25.1186C30.3599 19.0456 30.3599 12.9543 29.7117 6.88109Z" fill="url(#paint1_linear_181_353)"/>
<path d="M0.479492 25.6127C0.501465 25.8339 0.52417 26.0551 0.547852 26.2763C0.839111 29.0053 2.99463 31.1609 5.72388 31.4521C12.5679 32.1826 19.4324 32.1826 26.2764 31.4521C29.0056 31.1609 31.1609 29.0053 31.4521 26.2763C31.4758 26.0551 31.4985 25.8339 31.5208 25.6127H0.479492Z" fill="url(#paint2_linear_181_353)"/>
<path d="M26.2764 31.4521C29.0056 31.1609 31.1609 29.0054 31.4521 26.2761C31.7717 23.2834 31.9514 20.2868 31.9915 17.2895L25.0403 10.3386C24.6834 9.89621 24.3606 9.85519 23.6917 9.72458C23.1497 9.61862 22.5952 9.54635 22.0437 9.52463C20.2803 9.45505 18.5156 9.38888 16.751 9.37204C14.1599 9.34738 11.5684 9.35592 8.98756 9.65573C7.87477 9.78488 6.6985 10.6577 6.57228 11.8474C6.50758 12.4587 6.39528 13.0666 6.36037 13.6794C6.23268 15.9111 6.20607 18.1416 6.51808 20.3645C6.62257 21.1089 6.73756 21.4494 7.23927 21.8645L17.365 31.9902C20.3369 31.948 23.3086 31.7688 26.2764 31.4521Z" fill="url(#paint3_linear_181_353)"/>
<path d="M16.5484 22.8877C13.9653 22.801 11.9661 22.7517 9.96925 22.6565C9.35988 22.6272 8.73268 22.5444 8.15553 22.3569C7.09328 22.0122 6.48732 21.2354 6.32985 20.1135C6.01784 17.8907 6.04445 15.6602 6.17214 13.4285C6.20729 12.8157 6.3196 12.2078 6.38429 11.5965C6.51003 10.4068 7.68654 9.53378 8.79933 9.40487C11.3804 9.10507 13.9717 9.09652 16.563 9.12118C18.3276 9.13803 20.0921 9.20419 21.8555 9.27377C22.407 9.2955 22.9614 9.36801 23.5034 9.47372C24.6978 9.70687 25.3887 10.4539 25.5991 11.6539C25.8838 13.2774 25.9583 14.9166 25.8984 16.5564C25.8533 17.7976 25.7254 19.0369 25.5967 20.2732C25.4546 21.6377 24.2732 22.4458 23.2092 22.5159C20.7979 22.6748 18.3838 22.7876 16.5484 22.8877Z" fill="url(#paint4_linear_181_353)"/>
<path d="M14.1125 19.0188C15.78 17.9951 17.4067 16.9959 19.0823 15.9671C17.4102 14.9395 15.7837 13.94 14.1125 12.9132V19.0188Z" fill="white"/>
<defs>
<linearGradient id="paint0_linear_181_353" x1="7.27953" y1="-0.800308" x2="30.3372" y2="43.621" gradientUnits="userSpaceOnUse">
<stop stop-color="#FFFCF8"/>
<stop offset="0.1875" stop-color="#FAF8F6"/>
<stop offset="0.4041" stop-color="#ECEEF2"/>
<stop offset="0.6353" stop-color="#D5DCEA"/>
<stop offset="0.875" stop-color="#B5C4DF"/>
<stop offset="1" stop-color="#A1B5D8"/>
</linearGradient>
<linearGradient id="paint1_linear_181_353" x1="12.2733" y1="13.9037" x2="-41.9384" y2="-16.5905" gradientUnits="userSpaceOnUse">
<stop stop-color="#A1B5D8" stop-opacity="0"/>
<stop offset="0.3094" stop-color="#90A2BD" stop-opacity="0.309804"/>
<stop offset="0.7554" stop-color="#7C8B9C" stop-opacity="0.756863"/>
<stop offset="1" stop-color="#748290"/>
</linearGradient>
<linearGradient id="paint2_linear_181_353" x1="16" y1="28.2478" x2="16" y2="33.2359" gradientUnits="userSpaceOnUse">
<stop stop-color="#A1B5D8" stop-opacity="0"/>
<stop offset="0.3094" stop-color="#90A2BD" stop-opacity="0.309804"/>
<stop offset="0.7554" stop-color="#7C8B9C" stop-opacity="0.756863"/>
<stop offset="1" stop-color="#748290"/>
</linearGradient>
<linearGradient id="paint3_linear_181_353" x1="26.4691" y1="26.4322" x2="4.51595" y2="4.47905" gradientUnits="userSpaceOnUse">
<stop stop-color="#A1B5D8" stop-opacity="0"/>
<stop offset="0.3094" stop-color="#90A2BD" stop-opacity="0.309804"/>
<stop offset="0.7554" stop-color="#7C8B9C" stop-opacity="0.756863"/>
<stop offset="1" stop-color="#748290"/>
</linearGradient>
<linearGradient id="paint4_linear_181_353" x1="14.7898" y1="12.4932" x2="17.7285" y2="21.05" gradientUnits="userSpaceOnUse">
<stop stop-color="#E52D27"/>
<stop offset="1" stop-color="#B31217"/>
</linearGradient>
</defs>
</svg>
