<svg width="33" height="32" viewBox="0 0 33 32" fill="none" xmlns="http://www.w3.org/2000/svg">
<path d="M26.7764 31.4521C19.9324 32.1826 13.0676 32.1826 6.22363 31.4521C3.49463 31.1609 1.33911 29.0054 1.04785 26.2761C0.317383 19.4321 0.317383 12.5676 1.04785 5.72363C1.33911 2.99463 3.49463 0.839111 6.22363 0.547852C13.0676 -0.182617 19.9321 -0.182617 26.7761 0.547852C29.5054 0.839111 31.6609 2.99463 31.9521 5.72363C32.6826 12.5676 32.6826 19.4321 31.9521 26.2761C31.6609 29.0054 29.5056 31.1609 26.7764 31.4521Z" fill="url(#paint0_linear_181_370)"/>
<path d="M30.2117 6.88109C29.9534 4.45947 28.0408 2.54663 25.6189 2.28808C19.5457 1.64014 13.4543 1.64014 7.3811 2.28808C4.95947 2.54663 3.04663 4.45947 2.78809 6.88109C2.14014 12.9543 2.14014 19.0456 2.78809 25.1186C3.04663 27.5405 4.95947 29.4533 7.3811 29.7116C13.4543 30.3598 19.5457 30.3598 25.6187 29.7116C28.0405 29.4533 29.9534 27.5405 30.2117 25.1186C30.8599 19.0456 30.8599 12.9543 30.2117 6.88109Z" fill="url(#paint1_linear_181_370)"/>
<path d="M0.979492 25.6127C1.00146 25.8339 1.02417 26.0551 1.04785 26.2763C1.33911 29.0053 3.49463 31.1609 6.22388 31.4521C13.0679 32.1826 19.9324 32.1826 26.7764 31.4521C29.5056 31.1609 31.6609 29.0053 31.9521 26.2763C31.9758 26.0551 31.9985 25.8339 32.0208 25.6127H0.979492Z" fill="url(#paint2_linear_181_370)"/>
<path fill-rule="evenodd" clip-rule="evenodd" d="M23.4963 8.96485C21.6399 7.10718 19.2341 6.20898 16.604 6.20776C11.1846 6.20776 6.83691 10.554 6.83472 15.9734C6.83398 17.7058 7.41211 19.334 8.27246 20.8245L6.62646 25.9177L12.6313 31.9224C17.3472 32.1116 22.0664 31.9549 26.7764 31.4522C29.5056 31.1609 31.6609 29.0054 31.9521 26.2761C32.2483 23.5029 32.4241 20.7261 32.4802 17.9487L23.4963 8.96485Z" fill="url(#paint3_linear_181_370)"/>
<path d="M6.96851 25.5743L8.31519 20.6574C7.48438 19.2184 7.04761 17.5859 7.0481 15.9138C7.05029 10.6821 11.3081 6.42578 16.5398 6.42578C19.0789 6.427 21.4622 7.41503 23.2539 9.20848C25.0461 11.0022 26.0325 13.3859 26.0315 15.9213C26.0293 21.153 21.771 25.4098 16.54 25.4098C16.5398 25.4098 16.5403 25.4098 16.54 25.4098H16.5359C14.9475 25.4093 13.3867 25.0106 12.0002 24.255L6.96851 25.5743Z" fill="url(#paint4_linear_181_370)"/>
<path fill-rule="evenodd" clip-rule="evenodd" d="M23.4963 8.96495C21.6399 7.10729 19.1714 6.08362 16.5413 6.0824C11.1218 6.0824 6.71143 10.4913 6.70923 15.9107C6.7085 17.6431 7.16113 19.334 8.02148 20.8245L6.62646 25.9177L11.8386 24.551C13.2749 25.3342 14.8916 25.7468 16.5371 25.7476H16.5413C21.96 25.7476 26.3711 21.3377 26.3733 15.9185C26.3743 13.2923 25.3525 10.8228 23.4963 8.96495ZM16.5413 24.0877H16.5381C15.0715 24.0867 13.6333 23.6929 12.3789 22.9485L12.0803 22.7715L8.9873 23.5825L9.81299 20.5679L9.61841 20.2588C8.80029 18.9581 8.36841 17.4549 8.36914 15.9114C8.37085 11.4071 12.0366 7.74254 16.5444 7.74254C18.7273 7.74328 20.7788 8.59434 22.322 10.1383C23.865 11.6825 24.7139 13.7349 24.7134 15.918C24.7114 20.4224 21.0454 24.0877 16.5413 24.0877Z" fill="white"/>
<path fill-rule="evenodd" clip-rule="evenodd" d="M21.0237 17.969C20.7781 17.8462 19.5703 17.2517 19.345 17.1697C19.1199 17.0879 18.9561 17.0469 18.7923 17.293C18.6284 17.5386 18.1577 18.0918 18.0144 18.2556C17.8711 18.4197 17.7278 18.4402 17.4822 18.3174C17.2366 18.1941 16.4453 17.9351 15.5066 17.0981C14.7764 16.447 14.2832 15.6428 14.1399 15.397C13.9966 15.1511 14.1245 15.0181 14.2478 14.8955C14.3579 14.7856 14.4934 14.6089 14.6162 14.4653C14.7388 14.322 14.7798 14.2195 14.8618 14.0557C14.9436 13.8916 14.9026 13.7483 14.8413 13.6255C14.7798 13.5024 14.3025 12.2876 14.084 11.8018C13.8999 11.3928 13.7061 11.3845 13.531 11.3774C13.3879 11.3713 13.2239 11.3716 13.0603 11.3716C12.8965 11.3716 12.6304 11.4331 12.4053 11.679C12.1799 11.9248 11.5452 12.519 11.5452 13.7278C11.5452 14.9365 12.4258 16.1045 12.5483 16.2686C12.6714 16.4324 14.2481 18.9919 16.7451 19.9768C18.8203 20.7952 19.2427 20.6323 19.6931 20.5913C20.1436 20.5503 21.1465 19.9973 21.3513 19.4236C21.5559 18.8501 21.5559 18.3584 21.4946 18.2556C21.4331 18.1533 21.2693 18.0918 21.0237 17.969Z" fill="white"/>
<defs>
<linearGradient id="paint0_linear_181_370" x1="7.77953" y1="-0.800308" x2="30.8372" y2="43.621" gradientUnits="userSpaceOnUse">
<stop stop-color="#FFFCF8"/>
<stop offset="0.1875" stop-color="#FAF8F6"/>
<stop offset="0.4041" stop-color="#ECEEF2"/>
<stop offset="0.6353" stop-color="#D5DCEA"/>
<stop offset="0.875" stop-color="#B5C4DF"/>
<stop offset="1" stop-color="#A1B5D8"/>
</linearGradient>
<linearGradient id="paint1_linear_181_370" x1="12.7733" y1="13.9037" x2="-41.4384" y2="-16.5905" gradientUnits="userSpaceOnUse">
<stop stop-color="#A1B5D8" stop-opacity="0"/>
<stop offset="0.3094" stop-color="#90A2BD" stop-opacity="0.309804"/>
<stop offset="0.7554" stop-color="#7C8B9C" stop-opacity="0.756863"/>
<stop offset="1" stop-color="#748290"/>
</linearGradient>
<linearGradient id="paint2_linear_181_370" x1="16.5" y1="28.2478" x2="16.5" y2="33.2359" gradientUnits="userSpaceOnUse">
<stop stop-color="#A1B5D8" stop-opacity="0"/>
<stop offset="0.3094" stop-color="#90A2BD" stop-opacity="0.309804"/>
<stop offset="0.7554" stop-color="#7C8B9C" stop-opacity="0.756863"/>
<stop offset="1" stop-color="#748290"/>
</linearGradient>
<linearGradient id="paint3_linear_181_370" x1="21.7002" y1="25.4613" x2="9.61581" y2="5.60167" gradientUnits="userSpaceOnUse">
<stop stop-color="#A1B5D8" stop-opacity="0"/>
<stop offset="0.3094" stop-color="#90A2BD" stop-opacity="0.309804"/>
<stop offset="0.7554" stop-color="#7C8B9C" stop-opacity="0.756863"/>
<stop offset="1" stop-color="#748290"/>
</linearGradient>
<linearGradient id="paint4_linear_181_370" x1="16.5" y1="25.5744" x2="16.5" y2="6.42576" gradientUnits="userSpaceOnUse">
<stop stop-color="#20B038"/>
<stop offset="1" stop-color="#60D66A"/>
</linearGradient>
</defs>
</svg>
