<svg width="32" height="32" viewBox="0 0 32 32" fill="none" xmlns="http://www.w3.org/2000/svg">
<path d="M26.2764 31.4521C19.4324 32.1826 12.5676 32.1826 5.72363 31.4521C2.99463 31.1609 0.839111 29.0054 0.547852 26.2761C-0.182617 19.4321 -0.182617 12.5676 0.547852 5.72363C0.839111 2.99463 2.99463 0.839111 5.72363 0.547852C12.5676 -0.182617 19.4321 -0.182617 26.2761 0.547852C29.0054 0.839111 31.1609 2.99463 31.4521 5.72363C32.1826 12.5676 32.1826 19.4321 31.4521 26.2761C31.1609 29.0054 29.0056 31.1609 26.2764 31.4521Z" fill="url(#paint0_linear_181_391)"/>
<path d="M29.7117 6.88109C29.4534 4.45947 27.5408 2.54663 25.1189 2.28808C19.0457 1.64014 12.9543 1.64014 6.8811 2.28808C4.45947 2.54663 2.54663 4.45947 2.28809 6.88109C1.64014 12.9543 1.64014 19.0456 2.28809 25.1186C2.54663 27.5405 4.45947 29.4533 6.8811 29.7116C12.9543 30.3598 19.0457 30.3598 25.1187 29.7116C27.5405 29.4533 29.4534 27.5405 29.7117 25.1186C30.3599 19.0456 30.3599 12.9543 29.7117 6.88109Z" fill="url(#paint1_linear_181_391)"/>
<path d="M0.479492 25.6129C0.501465 25.8341 0.52417 26.0553 0.547852 26.2765C0.839111 29.0054 2.99463 31.1609 5.72388 31.4522C12.5679 32.1826 19.4324 32.1826 26.2764 31.4522C29.0056 31.1609 31.1609 29.0054 31.4521 26.2765C31.4758 26.0553 31.4985 25.8341 31.5208 25.6129H0.479492Z" fill="url(#paint2_linear_181_391)"/>
<path d="M31.1072 27.7231L10.4568 7.07251C9.99561 6.4707 9.27002 6.08228 8.45337 6.08228C7.0603 6.08228 5.93091 7.21143 5.93091 8.60449C5.93091 9.42139 6.31958 10.147 6.92139 10.6079L27.5 31.1868C29.1633 30.6333 30.489 29.3552 31.1072 27.7231Z" fill="url(#paint3_linear_181_391)"/>
<path d="M10.572 12.7815H6.33447V25.9177L12.3472 31.9304C16.9912 32.1062 21.6384 31.9473 26.2761 31.4522C27.0869 31.3657 27.8464 31.1135 28.5222 30.7317L10.572 12.7815Z" fill="url(#paint4_linear_181_391)"/>
<path d="M24.9631 13.8818C24.188 13.032 23.072 12.4988 21.8315 12.4988C19.8694 12.4988 18.603 13.188 17.8494 13.8279L17.019 12.7815H13.1145V25.9177L19.1453 31.9485C21.5237 31.8711 23.9011 31.7056 26.2764 31.4521C29.0056 31.1609 31.1609 29.0054 31.4521 26.2764C31.647 24.4517 31.7893 22.6255 31.8801 20.7988L24.9631 13.8818Z" fill="url(#paint5_linear_181_391)"/>
<path d="M6.33472 12.7815H10.572V25.9177H6.33472V12.7815Z" fill="white"/>
<path d="M21.8315 12.4988C18.7263 12.4988 17.3623 14.2246 17.019 14.75V12.7815H13.1145V25.9177H17.3521V19.3193C17.3521 17.4126 18.2297 15.9294 19.8945 15.9294C21.5591 15.9294 21.8315 17.7756 21.8315 20.0459V25.9177H26.0691V16.7363C26.0691 14.396 24.1719 12.4988 21.8315 12.4988Z" fill="white"/>
<path d="M10.9756 8.60474C10.9756 9.9978 9.84644 11.127 8.45337 11.127C7.0603 11.127 5.93091 9.9978 5.93091 8.60474C5.93091 7.21167 7.0603 6.08228 8.45337 6.08228C9.84644 6.08228 10.9756 7.21167 10.9756 8.60474Z" fill="white"/>
<defs>
<linearGradient id="paint0_linear_181_391" x1="10.6246" y1="4.49914" x2="18.7183" y2="21.8159" gradientUnits="userSpaceOnUse">
<stop stop-color="#0077B5"/>
<stop offset="1" stop-color="#0066B2"/>
</linearGradient>
<linearGradient id="paint1_linear_181_391" x1="22.7677" y1="19.6304" x2="-23.7241" y2="-5.30958" gradientUnits="userSpaceOnUse">
<stop stop-color="#0066B2" stop-opacity="0"/>
<stop offset="1" stop-color="#07485E"/>
</linearGradient>
<linearGradient id="paint2_linear_181_391" x1="16" y1="25.9893" x2="16" y2="32.6771" gradientUnits="userSpaceOnUse">
<stop stop-color="#0066B2" stop-opacity="0"/>
<stop offset="1" stop-color="#07485E"/>
</linearGradient>
<linearGradient id="paint3_linear_181_391" x1="16.9596" y1="17.111" x2="4.99481" y2="5.14613" gradientUnits="userSpaceOnUse">
<stop stop-color="#0066B2" stop-opacity="0"/>
<stop offset="1" stop-color="#07485E"/>
</linearGradient>
<linearGradient id="paint4_linear_181_391" x1="23.9843" y1="28.2269" x2="-0.109788" y2="16.9328" gradientUnits="userSpaceOnUse">
<stop stop-color="#0066B2" stop-opacity="0"/>
<stop offset="1" stop-color="#07485E"/>
</linearGradient>
<linearGradient id="paint5_linear_181_391" x1="29.8457" y1="30.7034" x2="13.0606" y2="13.9183" gradientUnits="userSpaceOnUse">
<stop stop-color="#0066B2" stop-opacity="0"/>
<stop offset="1" stop-color="#07485E"/>
</linearGradient>
</defs>
</svg>
