<svg width="33" height="32" viewBox="0 0 33 32" fill="none" xmlns="http://www.w3.org/2000/svg">
<path d="M26.7764 31.4521C19.9324 32.1826 13.0676 32.1826 6.22363 31.4521C3.49463 31.1609 1.33911 29.0054 1.04785 26.2761C0.317383 19.4321 0.317383 12.5676 1.04785 5.72363C1.33911 2.99463 3.49463 0.839111 6.22363 0.547852C13.0676 -0.182617 19.9321 -0.182617 26.7761 0.547852C29.5054 0.839111 31.6609 2.99463 31.9521 5.72363C32.6826 12.5676 32.6826 19.4321 31.9521 26.2761C31.6609 29.0054 29.5056 31.1609 26.7764 31.4521Z" fill="url(#paint0_linear_181_416)"/>
<path d="M30.2116 6.88109C29.9533 4.45947 28.0407 2.54663 25.6188 2.28808C19.5456 1.64014 13.4543 1.64014 7.38109 2.28808C4.95947 2.54663 3.04663 4.45947 2.78808 6.88109C2.14014 12.9543 2.14014 19.0456 2.78808 25.1186C3.04663 27.5405 4.95947 29.4533 7.38109 29.7116C13.4543 30.3598 19.5456 30.3598 25.6186 29.7116C28.0405 29.4533 29.9533 27.5405 30.2116 25.1186C30.8598 19.0456 30.8598 12.9543 30.2116 6.88109V6.88109Z" fill="url(#paint1_linear_181_416)"/>
<path d="M0.979492 25.6129C1.00146 25.8341 1.02417 26.0553 1.04785 26.2765C1.33911 29.0054 3.49463 31.1609 6.22388 31.4522C13.0679 32.1826 19.9324 32.1826 26.7764 31.4522C29.5056 31.1609 31.6609 29.0054 31.9521 26.2765C31.9758 26.0553 31.9985 25.8341 32.0208 25.6129H0.979492Z" fill="url(#paint2_linear_181_416)"/>
<path d="M31.9521 26.2761C32.2544 23.4441 32.4312 20.6086 32.4834 17.7725L23.897 9.18603C22.0925 7.28345 19.4478 6.08228 16.5 6.08228C11.0625 6.08228 6.65454 10.1682 6.65454 15.2082C6.65454 17.6887 7.72314 19.9372 9.45581 21.582C9.56982 21.7024 10.2681 22.3987 10.323 22.4536L10.3604 25.4851C10.3638 25.7624 10.4756 26.0276 10.6716 26.2236L16.4478 31.9997C19.8923 32.0017 23.3369 31.8191 26.7761 31.4521C29.5056 31.1609 31.6609 29.0054 31.9521 26.2761V26.2761Z" fill="url(#paint3_linear_181_416)"/>
<path d="M16.5 6.08228C11.0625 6.08228 6.65454 10.1682 6.65454 15.2083C6.65454 18.0793 8.08521 20.6401 10.3213 22.313L10.3611 25.5308C10.363 25.7046 10.551 25.8125 10.7024 25.7266L13.7771 23.9805C14.6418 24.2107 15.5554 24.3342 16.5 24.3342C21.9375 24.3342 26.3455 20.2483 26.3455 15.2083C26.3455 10.1682 21.9375 6.08228 16.5 6.08228V6.08228ZM17.2476 18.1497L15.1431 15.9592C15.0198 15.8308 14.8259 15.8003 14.6692 15.8848L10.9763 17.8733C10.8357 17.949 10.6978 17.769 10.8071 17.6528L15.1709 13.0271C15.2961 12.8945 15.5071 12.8945 15.6321 13.0273L17.7358 15.2598C17.8594 15.3911 18.0557 15.4224 18.2141 15.3362L21.843 13.3604C21.9836 13.2839 22.1223 13.4641 22.0127 13.5806L17.7068 18.1475C17.5825 18.2793 17.3733 18.2803 17.2476 18.1497V18.1497Z" fill="white"/>
<defs>
<linearGradient id="paint0_linear_181_416" x1="11.1246" y1="4.49914" x2="19.2183" y2="21.8159" gradientUnits="userSpaceOnUse">
<stop stop-color="#0082FF"/>
<stop offset="1" stop-color="#0078DB"/>
</linearGradient>
<linearGradient id="paint1_linear_181_416" x1="23.2676" y1="19.6304" x2="-23.2241" y2="-5.3095" gradientUnits="userSpaceOnUse">
<stop stop-color="#0078DB" stop-opacity="0"/>
<stop offset="1" stop-color="#006CB5"/>
</linearGradient>
<linearGradient id="paint2_linear_181_416" x1="16.5" y1="27.7334" x2="16.5" y2="30.9985" gradientUnits="userSpaceOnUse">
<stop stop-color="#0078DB" stop-opacity="0"/>
<stop offset="1" stop-color="#006CB5"/>
</linearGradient>
<linearGradient id="paint3_linear_181_416" x1="28.4584" y1="28.8766" x2="19.1369" y2="19.5552" gradientUnits="userSpaceOnUse">
<stop stop-color="#0078DB" stop-opacity="0"/>
<stop offset="1" stop-color="#006CB5"/>
</linearGradient>
</defs>
</svg>
