<svg width="32" height="32" viewBox="0 0 32 32" fill="none" xmlns="http://www.w3.org/2000/svg">
<path d="M26.2764 31.4521C19.4324 32.1826 12.5676 32.1826 5.72363 31.4521C2.99463 31.1609 0.839111 29.0054 0.547852 26.2761C-0.182617 19.4321 -0.182617 12.5676 0.547852 5.72363C0.839111 2.99463 2.99463 0.839111 5.72363 0.547852C12.5676 -0.182617 19.4321 -0.182617 26.2761 0.547852C29.0054 0.839111 31.1609 2.99463 31.4521 5.72363C32.1826 12.5676 32.1826 19.4321 31.4521 26.2761C31.1609 29.0054 29.0056 31.1609 26.2764 31.4521Z" fill="url(#paint0_linear_181_431)"/>
<path d="M29.7116 6.88109C29.4533 4.45947 27.5407 2.54663 25.1188 2.28808C19.0456 1.64014 12.9543 1.64014 6.88109 2.28808C4.45947 2.54663 2.54663 4.45947 2.28808 6.88109C1.64014 12.9543 1.64014 19.0456 2.28808 25.1186C2.54663 27.5405 4.45947 29.4533 6.88109 29.7116C12.9543 30.3598 19.0456 30.3598 25.1186 29.7116C27.5405 29.4533 29.4533 27.5405 29.7116 25.1186C30.3598 19.0456 30.3598 12.9543 29.7116 6.88109Z" fill="url(#paint1_linear_181_431)"/>
<path d="M0.479492 25.6129C0.501465 25.8341 0.52417 26.0553 0.547852 26.2765C0.839111 29.0054 2.99463 31.1609 5.72388 31.4522C12.5679 32.1826 19.4324 32.1826 26.2764 31.4522C29.0056 31.1609 31.1609 29.0054 31.4521 26.2765C31.4758 26.0553 31.4985 25.8341 31.5208 25.6129H0.479492Z" fill="url(#paint2_linear_181_431)"/>
<path d="M26.2763 31.4523C29.0056 31.161 31.1609 29.0055 31.4521 26.2762C31.8703 22.3582 32.0485 18.4334 31.988 14.5093L24.2697 6.79123C23.9301 6.31271 23.3496 6.02706 22.7248 6.09493C22.196 6.14913 21.7214 6.45724 21.4589 6.91501L17.3537 6.09493C17.0749 6.03243 16.7958 6.20724 16.7333 6.49044V6.49874L15.4968 12.311C13.1652 12.3486 10.8962 13.0647 8.96405 14.3721C7.98163 13.4478 6.4328 13.4937 5.50849 14.4805C4.58417 15.4629 4.62982 17.0117 5.61664 17.9361C5.66596 17.9822 5.71723 18.0266 5.77045 18.0691C5.84418 18.1617 5.92499 18.2503 6.0141 18.3335C6.06342 18.3797 6.11469 18.4241 6.16791 18.4663C6.19867 18.5052 6.23114 18.5433 6.26483 18.5804C6.25946 18.7583 6.26239 18.9366 6.27435 19.1145C6.27435 20.6436 7.00116 22.0567 8.22699 23.1942L17.0271 31.9943C20.1118 31.9613 23.196 31.7811 26.2763 31.4523Z" fill="url(#paint3_linear_181_431)"/>
<path d="M27.1548 16.1499C27.105 14.801 25.9724 13.7475 24.6194 13.7934C24.0197 13.8142 23.4494 14.0598 23.0163 14.4719C21.1093 13.1731 18.8693 12.4609 16.5669 12.4111L17.6535 7.18575L21.2385 7.93942C21.3383 8.85959 22.1628 9.5256 23.083 9.42575C24.0031 9.32565 24.6692 8.50143 24.5693 7.58126C24.4692 6.6611 23.645 5.99483 22.7248 6.09493C22.196 6.14913 21.7214 6.45724 21.459 6.915L17.3537 6.09493C17.0749 6.03243 16.7959 6.20724 16.7334 6.49044V6.49874L15.4968 12.311C13.1652 12.3486 10.8962 13.0647 8.96406 14.372C7.98163 13.4477 6.4328 13.4936 5.50849 14.4804C4.58417 15.4629 4.62982 17.0117 5.61664 17.936C5.80805 18.1152 6.02875 18.2693 6.27436 18.3774C6.25775 18.623 6.25775 18.8686 6.27436 19.1145C6.27436 22.8657 10.6462 25.9177 16.038 25.9177C21.4299 25.9177 25.8017 22.8699 25.8017 19.1145C25.8183 18.8686 25.8183 18.623 25.8017 18.3774C26.6428 17.957 27.1716 17.091 27.1548 16.1499ZM10.4047 17.8279C10.4047 16.9035 11.1584 16.1499 12.0827 16.1499C13.007 16.1499 13.7607 16.9035 13.7607 17.8279C13.7607 18.7522 13.007 19.5058 12.0827 19.5058C11.1542 19.4975 10.4047 18.7522 10.4047 17.8279ZM20.135 22.4329C18.9443 23.3279 17.487 23.7859 15.9965 23.7236C14.5058 23.7859 13.0485 23.3279 11.8579 22.4329C11.6997 22.2412 11.7287 21.9541 11.9204 21.7956C12.0869 21.6584 12.3242 21.6584 12.4948 21.7956C13.5024 22.5327 14.7307 22.9075 15.9797 22.8491C17.2287 22.9158 18.4614 22.5576 19.4814 21.8291C19.6645 21.6501 19.9643 21.6543 20.1433 21.8374C20.3225 22.0207 20.3183 22.3203 20.135 22.4995V22.4329ZM19.8352 19.5642C18.9109 19.5642 18.1574 18.8105 18.1574 17.8862C18.1574 16.9619 18.9109 16.2082 19.8352 16.2082C20.7595 16.2082 21.5132 16.9619 21.5132 17.8862C21.5507 18.8105 20.8303 19.5891 19.906 19.6265C19.8769 19.6265 19.852 19.6265 19.8227 19.6265L19.8352 19.5642Z" fill="white"/>
<defs>
<linearGradient id="paint0_linear_181_431" x1="10.6246" y1="4.49914" x2="18.7183" y2="21.8159" gradientUnits="userSpaceOnUse">
<stop stop-color="#FF4500"/>
<stop offset="1" stop-color="#DD3400"/>
</linearGradient>
<linearGradient id="paint1_linear_181_431" x1="22.7676" y1="19.6304" x2="-23.7241" y2="-5.3095" gradientUnits="userSpaceOnUse">
<stop stop-color="#DD3400" stop-opacity="0"/>
<stop offset="1" stop-color="#BF2800"/>
</linearGradient>
<linearGradient id="paint2_linear_181_431" x1="16" y1="27.6079" x2="16" y2="31.2557" gradientUnits="userSpaceOnUse">
<stop stop-color="#DD3400" stop-opacity="0"/>
<stop offset="1" stop-color="#BF2800"/>
</linearGradient>
<linearGradient id="paint3_linear_181_431" x1="31.4105" y1="30.4181" x2="14.8457" y2="13.4769" gradientUnits="userSpaceOnUse">
<stop stop-color="#DD3400" stop-opacity="0"/>
<stop offset="1" stop-color="#BF2800"/>
</linearGradient>
</defs>
</svg>
