<svg width="33" height="32" viewBox="0 0 33 32" fill="none" xmlns="http://www.w3.org/2000/svg">
<path d="M26.7764 31.4521C19.9324 32.1826 13.0676 32.1826 6.22363 31.4521C3.49463 31.1609 1.33911 29.0054 1.04785 26.2761C0.317383 19.4321 0.317383 12.5676 1.04785 5.72363C1.33911 2.99463 3.49463 0.839111 6.22363 0.547852C13.0676 -0.182617 19.9321 -0.182617 26.7761 0.547852C29.5054 0.839111 31.6609 2.99463 31.9521 5.72363C32.6826 12.5676 32.6826 19.4321 31.9521 26.2761C31.6609 29.0054 29.5056 31.1609 26.7764 31.4521Z" fill="url(#paint0_linear_181_446)"/>
<path d="M30.2116 6.88109C29.9533 4.45947 28.0407 2.54663 25.6188 2.28808C19.5456 1.64014 13.4543 1.64014 7.38109 2.28808C4.95947 2.54663 3.04663 4.45947 2.78808 6.88109C2.14014 12.9543 2.14014 19.0456 2.78808 25.1186C3.04663 27.5405 4.95947 29.4533 7.38109 29.7116C13.4543 30.3598 19.5456 30.3598 25.6186 29.7116C28.0405 29.4533 29.9533 27.5405 30.2116 25.1186C30.8598 19.0456 30.8598 12.9543 30.2116 6.88109Z" fill="url(#paint1_linear_181_446)"/>
<path d="M0.979492 25.6129C1.00146 25.8341 1.02417 26.0553 1.04785 26.2765C1.33911 29.0054 3.49463 31.1609 6.22388 31.4522C13.0679 32.1826 19.9324 32.1826 26.7764 31.4522C29.5056 31.1609 31.6609 29.0054 31.9521 26.2765C31.9758 26.0553 31.9985 25.8341 32.0208 25.6129H0.979492Z" fill="url(#paint2_linear_181_446)"/>
<path d="M23.1189 9.6992C21.4543 7.95116 19.1045 6.86157 16.5 6.86157C16.0808 6.86157 15.6685 6.89038 15.2642 6.94506C14.3921 6.39868 13.3611 6.08228 12.2561 6.08228C9.12256 6.08228 6.58228 8.62255 6.58228 11.7561C6.58228 12.8611 6.89868 13.8921 7.44507 14.7641C7.39038 15.1684 7.36157 15.5808 7.36157 16C7.36157 18.6044 8.45117 20.9543 10.1992 22.6188L19.5322 31.9518C21.9482 31.8759 24.3635 31.7096 26.7764 31.452C29.5056 31.1608 31.6609 29.0053 31.9521 26.276C32.2097 23.8634 32.376 21.4482 32.4519 19.0322L23.1189 9.6992Z" fill="url(#paint3_linear_181_446)"/>
<path d="M25.5549 17.2358C25.6096 16.8315 25.6384 16.4192 25.6384 16C25.6384 10.9529 21.5471 6.86157 16.5 6.86157C16.0808 6.86157 15.6685 6.89038 15.2644 6.94507C14.3923 6.39844 13.3611 6.08228 12.2561 6.08228C9.12256 6.08228 6.58228 8.62231 6.58228 11.7561C6.58228 12.8611 6.89868 13.8921 7.44507 14.7642C7.39038 15.1685 7.36157 15.5808 7.36157 16C7.36157 21.0471 11.4531 25.1384 16.5002 25.1384C16.9194 25.1384 17.3318 25.1096 17.7358 25.0549C18.6079 25.6016 19.6392 25.9177 20.7441 25.9177C23.8777 25.9177 26.4177 23.3777 26.4177 20.2439C26.4177 19.1389 26.1016 18.1079 25.5549 17.2358ZM20.656 20.3806C19.9712 21.1973 19.0496 21.5752 18.0432 21.7839C17.4595 21.905 16.8643 21.9729 16.2678 21.9375C15.1169 21.8694 13.9895 21.7068 13.0254 20.9883C12.3435 20.4802 11.855 19.8369 11.6277 19.0103C11.4097 18.218 11.8396 17.6018 12.51 17.4927C12.9202 17.426 13.3621 17.5818 13.6245 17.9375C13.8188 18.2009 13.9316 18.5037 14.0698 18.7932C14.5093 19.7139 15.2485 20.1265 16.2488 20.1453C16.9141 20.1577 17.5557 20.0947 18.135 19.7307C18.7947 19.3162 19.033 18.7207 18.8113 18.0654C18.6873 17.699 18.4128 17.4814 18.0903 17.3145C17.4299 16.9724 16.6982 16.8665 15.9866 16.6938C14.9697 16.4475 13.9568 16.2051 13.0554 15.624C11.5884 14.6785 11.4495 12.6487 12.4705 11.4727C13.0938 10.7549 13.9094 10.416 14.8008 10.2178C15.3496 10.0957 15.9092 10.0334 16.4031 10.0588C17.3857 10.0444 18.2732 10.1714 19.0977 10.5757C19.917 10.9773 20.5769 11.5383 20.8354 12.4663C21.0884 13.3745 20.3384 14.1812 19.4321 13.9597C19.1443 13.8892 18.9558 13.6765 18.7903 13.4407C18.5952 13.1621 18.4504 12.853 18.2432 12.5808C17.8811 12.104 17.416 11.833 16.8149 11.8083C16.1765 11.782 15.5371 11.7407 14.9417 12.0581C14.7097 12.1816 14.5059 12.3354 14.3579 12.5471C14.0352 13.0088 14.1755 13.5649 14.6885 13.9124C15.2129 14.2676 15.8201 14.3921 16.4209 14.5352C17.4883 14.7893 18.5706 14.9976 19.572 15.469C20.4641 15.8889 21.1492 16.5017 21.3508 17.5205C21.5601 18.5784 21.3606 19.5405 20.656 20.3806Z" fill="white"/>
<defs>
<linearGradient id="paint0_linear_181_446" x1="11.1246" y1="4.49914" x2="19.2183" y2="21.8159" gradientUnits="userSpaceOnUse">
<stop stop-color="#00C3FF"/>
<stop offset="1" stop-color="#00B0ED"/>
</linearGradient>
<linearGradient id="paint1_linear_181_446" x1="23.2676" y1="19.6304" x2="-23.2241" y2="-5.3095" gradientUnits="userSpaceOnUse">
<stop stop-color="#00B0ED" stop-opacity="0"/>
<stop offset="1" stop-color="#00A2CE"/>
</linearGradient>
<linearGradient id="paint2_linear_181_446" x1="16.5" y1="27.3365" x2="16.5" y2="31.5295" gradientUnits="userSpaceOnUse">
<stop stop-color="#00B0ED" stop-opacity="0"/>
<stop offset="1" stop-color="#00A2CE"/>
</linearGradient>
<linearGradient id="paint3_linear_181_446" x1="34.4451" y1="33.945" x2="18.8339" y2="18.3337" gradientUnits="userSpaceOnUse">
<stop stop-color="#00B0ED" stop-opacity="0"/>
<stop offset="1" stop-color="#00A2CE"/>
</linearGradient>
</defs>
</svg>
