<svg width="32" height="32" viewBox="0 0 32 32" fill="none" xmlns="http://www.w3.org/2000/svg">
<path d="M26.2764 31.452C19.4324 32.1825 12.5676 32.1825 5.72363 31.452C2.99463 31.1608 0.839111 29.0053 0.547852 26.276C-0.182617 19.4321 -0.182617 12.5677 0.547852 5.72371C0.839111 2.99473 2.99463 0.839227 5.72363 0.547969C12.5676 -0.182494 19.4321 -0.182494 26.2761 0.547969C29.0054 0.839227 31.1609 2.99473 31.4521 5.72371C32.1826 12.5677 32.1826 19.4321 31.4521 26.276C31.1609 29.0053 29.0056 31.1608 26.2764 31.452Z" fill="url(#paint0_linear_181_659)"/>
<path d="M29.7117 6.88109C29.4534 4.45947 27.5408 2.54663 25.1189 2.28808C19.0457 1.64014 12.9543 1.64014 6.8811 2.28808C4.45947 2.54663 2.54663 4.45947 2.28809 6.88109C1.64014 12.9543 1.64014 19.0456 2.28809 25.1186C2.54663 27.5405 4.45947 29.4533 6.8811 29.7116C12.9543 30.3598 19.0457 30.3598 25.1187 29.7116C27.5405 29.4533 29.4534 27.5405 29.7117 25.1186C30.3599 19.0456 30.3599 12.9543 29.7117 6.88109Z" fill="url(#paint1_linear_181_659)"/>
<path d="M0.479492 25.6128C0.501465 25.834 0.52417 26.0552 0.547852 26.2764C0.839111 29.0053 2.99463 31.1608 5.72388 31.452C12.5679 32.1825 19.4324 32.1825 26.2764 31.452C29.0056 31.1608 31.1609 29.0053 31.4521 26.2764C31.4758 26.0552 31.4985 25.834 31.5208 25.6128H0.479492Z" fill="url(#paint2_linear_181_659)"/>
<path d="M26.2764 31.4521C29.0056 31.1609 31.1609 29.0054 31.4521 26.2761C31.7195 23.7725 31.8884 21.2661 31.9602 18.759L21.7893 8.58813C20.3406 7.0459 18.283 6.08228 16 6.08228C11.614 6.08228 8.05835 9.63794 8.05835 14.0239C8.05835 17.469 10.9583 21.9351 13.3972 24.2932L20.9753 31.8713C22.7432 31.78 24.5105 31.6406 26.2764 31.4521Z" fill="url(#paint3_linear_181_659)"/>
<path d="M23.9417 14.0239C23.9417 18.9734 18.28 25.9177 16 25.9177C13.9485 25.9177 8.05835 18.9338 8.05835 14.0239C8.05835 9.63794 11.614 6.08228 16 6.08228C20.386 6.08228 23.9417 9.63794 23.9417 14.0239Z" fill="white"/>
<path d="M16 9.22229C15.6428 9.22229 15.2949 9.25989 14.9597 9.33069C15.4832 9.66711 15.8301 10.254 15.8301 10.9222C15.8301 11.9669 14.9834 12.8136 13.9387 12.8136C12.9819 12.8136 12.1917 12.1029 12.0657 11.1805C11.5129 11.9322 11.188 12.8492 11.188 13.8392C11.188 16.3889 13.3425 18.4561 16 18.4561C18.6575 18.4561 20.812 16.3889 20.812 13.8392C20.812 11.2892 18.6575 9.22229 16 9.22229Z" fill="#E94F3C"/>
<defs>
<linearGradient id="paint0_linear_181_659" x1="7.27953" y1="-0.80018" x2="30.3369" y2="43.621" gradientUnits="userSpaceOnUse">
<stop stop-color="#41A4C3"/>
<stop offset="0.4138" stop-color="#3CA1BE"/>
<stop offset="0.8912" stop-color="#2E98B1"/>
<stop offset="1" stop-color="#2A95AD"/>
</linearGradient>
<linearGradient id="paint1_linear_181_659" x1="17.7156" y1="16.965" x2="-36.4961" y2="-13.5291" gradientUnits="userSpaceOnUse">
<stop stop-color="#2A95AD" stop-opacity="0"/>
<stop offset="0.5189" stop-color="#1F879A" stop-opacity="0.517647"/>
<stop offset="1" stop-color="#177D8E"/>
</linearGradient>
<linearGradient id="paint2_linear_181_659" x1="16" y1="28.0249" x2="16" y2="31.7917" gradientUnits="userSpaceOnUse">
<stop stop-color="#2A95AD" stop-opacity="0"/>
<stop offset="0.5189" stop-color="#1F879A" stop-opacity="0.517647"/>
<stop offset="1" stop-color="#177D8E"/>
</linearGradient>
<linearGradient id="paint3_linear_181_659" x1="28.875" y1="27.7212" x2="15.1957" y2="14.0419" gradientUnits="userSpaceOnUse">
<stop stop-color="#2A95AD" stop-opacity="0"/>
<stop offset="0.5189" stop-color="#1F879A" stop-opacity="0.517647"/>
<stop offset="1" stop-color="#177D8E"/>
</linearGradient>
</defs>
</svg>
