<svg width="32" height="32" viewBox="0 0 32 32" fill="none" xmlns="http://www.w3.org/2000/svg">
<path d="M26.2764 31.452C19.4324 32.1825 12.5676 32.1825 5.72365 31.452C2.99464 31.1608 0.839127 29.0053 0.547867 26.276C-0.182602 19.4321 -0.182602 12.5676 0.547867 5.72371C0.839127 2.99473 2.99464 0.839227 5.72365 0.547969C12.5676 -0.182494 19.4321 -0.182494 26.2761 0.547969C29.0054 0.839227 31.1609 2.99473 31.4522 5.72371C32.1826 12.5676 32.1826 19.4321 31.4522 26.276C31.1609 29.0053 29.0056 31.1608 26.2764 31.452Z" fill="url(#paint0_linear_181_667)"/>
<path d="M29.7117 6.88119C29.4534 4.45957 27.5408 2.54675 25.1189 2.2882C19.0457 1.64026 12.9544 1.64026 6.88112 2.2882C4.45949 2.54675 2.54665 4.45957 2.2881 6.88119C1.64015 12.9544 1.64015 19.0456 2.2881 25.1186C2.54665 27.5404 4.45949 29.4533 6.88112 29.7116C12.9544 30.3598 19.0457 30.3598 25.1187 29.7116C27.5405 29.4533 29.4534 27.5404 29.7117 25.1186C30.3599 19.0456 30.3599 12.9544 29.7117 6.88119Z" fill="url(#paint1_linear_181_667)"/>
<path d="M0.479507 25.6127C0.50148 25.8339 0.524185 26.0551 0.547867 26.2762C0.839126 29.0052 2.99464 31.1607 5.72389 31.452C12.5679 32.1824 19.4324 32.1824 26.2764 31.452C29.0056 31.1607 31.1609 29.0052 31.4522 26.2762C31.4758 26.0551 31.4985 25.8339 31.5208 25.6127H0.479507Z" fill="url(#paint2_linear_181_667)"/>
<path d="M26.2764 31.452C29.0056 31.1607 31.1609 29.0052 31.4522 26.276C31.6707 24.2309 31.823 22.1838 31.9109 20.1357L17.8572 6.08234H14.7595C14.6157 8.30546 13.3682 10.8726 10.385 11.6472V14.8313L13.0957 17.3286V20.7114C13.0957 22.5737 13.6685 23.8852 14.6213 24.7265L21.7246 31.8297C23.2427 31.7396 24.76 31.6139 26.2764 31.452Z" fill="url(#paint3_linear_181_667)"/>
<path d="M18.302 25.9176C15.3189 25.9176 13.0957 24.383 13.0957 20.7114V14.8313H10.385V11.6472C13.3682 10.8726 14.616 8.30546 14.7595 6.08234H17.8572V11.1309H21.4714V14.8313H17.8572V19.9514C17.8572 21.486 18.6318 22.0165 19.865 22.0165H21.6152V25.9176H18.302Z" fill="white"/>
<defs>
<linearGradient id="paint0_linear_181_667" x1="10.6246" y1="4.49923" x2="18.7182" y2="21.8159" gradientUnits="userSpaceOnUse">
<stop stop-color="#001935"/>
<stop offset="1" stop-color="#001121"/>
</linearGradient>
<linearGradient id="paint1_linear_181_667" x1="22.7677" y1="19.6304" x2="-23.724" y2="-5.30964" gradientUnits="userSpaceOnUse">
<stop stop-color="#001121" stop-opacity="0"/>
<stop offset="1" stop-color="#000305"/>
</linearGradient>
<linearGradient id="paint2_linear_181_667" x1="16" y1="27.7332" x2="16" y2="30.9983" gradientUnits="userSpaceOnUse">
<stop stop-color="#001121" stop-opacity="0"/>
<stop offset="1" stop-color="#000305"/>
</linearGradient>
<linearGradient id="paint3_linear_181_667" x1="28.7128" y1="27.8832" x2="18.4987" y2="17.6691" gradientUnits="userSpaceOnUse">
<stop stop-color="#001121" stop-opacity="0"/>
<stop offset="1" stop-color="#000305"/>
</linearGradient>
</defs>
</svg>
