<svg width="32" height="32" viewBox="0 0 32 32" fill="none" xmlns="http://www.w3.org/2000/svg">
<path d="M26.2764 31.452C19.4324 32.1825 12.5676 32.1825 5.72363 31.452C2.99463 31.1608 0.839111 29.0053 0.547852 26.276C-0.182617 19.4321 -0.182617 12.5677 0.547852 5.72371C0.839111 2.99473 2.99463 0.839227 5.72363 0.547969C12.5676 -0.182494 19.4321 -0.182494 26.2761 0.547969C29.0054 0.839227 31.1609 2.99473 31.4521 5.72371C32.1826 12.5677 32.1826 19.4321 31.4521 26.276C31.1609 29.0053 29.0056 31.1608 26.2764 31.452Z" fill="url(#paint0_linear_181_674)"/>
<path d="M29.7117 6.88109C29.4534 4.45947 27.5408 2.54663 25.1189 2.28808C19.0457 1.64014 12.9543 1.64014 6.8811 2.28808C4.45947 2.54663 2.54663 4.45947 2.28809 6.88109C1.64014 12.9543 1.64014 19.0456 2.28809 25.1186C2.54663 27.5405 4.45947 29.4533 6.8811 29.7116C12.9543 30.3598 19.0457 30.3598 25.1187 29.7116C27.5405 29.4533 29.4534 27.5405 29.7117 25.1186C30.3599 19.0456 30.3599 12.9543 29.7117 6.88109Z" fill="url(#paint1_linear_181_674)"/>
<path d="M0.479492 25.6128C0.501465 25.834 0.52417 26.0552 0.547852 26.2764C0.839111 29.0053 2.99463 31.1608 5.72388 31.452C12.5679 32.1825 19.4324 32.1825 26.2764 31.452C29.0056 31.1608 31.1609 29.0053 31.4521 26.2764C31.4758 26.0552 31.4985 25.834 31.5208 25.6128H0.479492Z" fill="url(#paint2_linear_181_674)"/>
<path d="M31.4521 26.2761C31.6831 24.113 31.8408 21.948 31.9255 19.782L19.095 6.95142H16.9028V8.85205L15.0974 6.95142H12.905V9.18652H10.6697V11.3789L12.5706 13.1843H10.6697V15.3767L26.6855 31.3926C29.2185 30.9399 31.1758 28.8674 31.4521 26.2761Z" fill="url(#paint3_linear_181_674)"/>
<path d="M26.2764 31.4521C29.0056 31.1609 31.1609 29.0054 31.4522 26.2761C31.5156 25.6809 31.5735 25.0854 31.626 24.49L25.3584 18.2265C24.7529 17.7876 23.9062 17.9226 23.4673 18.528C21.7366 20.9153 18.9451 22.3405 16 22.3405C14.0525 22.3405 12.1724 21.7168 10.6216 20.6042L8.51414 18.5051C8.07054 17.9199 7.239 17.7934 6.64158 18.2265C6.03612 18.6655 5.90135 19.5122 6.34032 20.1176C6.74779 20.6797 7.20506 21.2055 7.70409 21.6887L17.9946 31.979C20.7568 31.9221 23.5181 31.7466 26.2764 31.4521Z" fill="url(#paint4_linear_181_674)"/>
<path d="M25.3584 18.2265C24.7529 17.7876 23.9062 17.9226 23.4673 18.528C21.7366 20.9153 18.945 22.3406 16 22.3406C13.0549 22.3406 10.2634 20.9153 8.5327 18.528C8.09373 17.9226 7.24705 17.7876 6.64158 18.2265C6.03612 18.6655 5.90135 19.5122 6.34031 20.1176C7.42332 21.6116 8.85862 22.8513 10.4914 23.7029C12.1794 24.5832 14.0842 25.0486 16 25.0486C17.9158 25.0486 19.8205 24.5832 21.5085 23.7029C23.1413 22.8513 24.5766 21.6116 25.6599 20.1176C26.0989 19.5122 25.9638 18.6655 25.3584 18.2265Z" fill="white"/>
<path d="M12.905 17.6121H15.0974V15.3767H16.9028V17.6121H19.0949V15.3767H21.3303V13.1843H19.0949V11.3789H21.3303V9.18652H19.0949V6.95142H16.9028V9.18652H15.0974V6.95142H12.905V9.18652H10.6697V11.3789H12.905V13.1843H10.6697V15.3767H12.905V17.6121ZM15.0974 11.3789H16.9028V13.1843H15.0974V11.3789Z" fill="white"/>
<defs>
<linearGradient id="paint0_linear_181_674" x1="10.6246" y1="4.49923" x2="18.7182" y2="21.8159" gradientUnits="userSpaceOnUse">
<stop stop-color="#00C3FF"/>
<stop offset="1" stop-color="#00B0ED"/>
</linearGradient>
<linearGradient id="paint1_linear_181_674" x1="22.7677" y1="19.6304" x2="-23.7241" y2="-5.30958" gradientUnits="userSpaceOnUse">
<stop stop-color="#00B0ED" stop-opacity="0"/>
<stop offset="1" stop-color="#00A2CE"/>
</linearGradient>
<linearGradient id="paint2_linear_181_674" x1="16" y1="27.3364" x2="16" y2="31.5294" gradientUnits="userSpaceOnUse">
<stop stop-color="#00B0ED" stop-opacity="0"/>
<stop offset="1" stop-color="#00A2CE"/>
</linearGradient>
<linearGradient id="paint3_linear_181_674" x1="28.4945" y1="24.7761" x2="11.3785" y2="7.66012" gradientUnits="userSpaceOnUse">
<stop stop-color="#00B0ED" stop-opacity="0"/>
<stop offset="1" stop-color="#00A2CE"/>
</linearGradient>
<linearGradient id="paint4_linear_181_674" x1="21.918" y1="30.3584" x2="19.1258" y2="22.7663" gradientUnits="userSpaceOnUse">
<stop stop-color="#00B0ED" stop-opacity="0"/>
<stop offset="1" stop-color="#00A2CE"/>
</linearGradient>
</defs>
</svg>
