<svg width="32" height="32" viewBox="0 0 32 32" fill="none" xmlns="http://www.w3.org/2000/svg">
<path d="M26.2764 31.452C19.4324 32.1825 12.5676 32.1825 5.72363 31.452C2.99463 31.1608 0.839111 29.0053 0.547852 26.276C-0.182617 19.4321 -0.182617 12.5677 0.547852 5.72371C0.839111 2.99473 2.99463 0.839227 5.72363 0.547969C12.5676 -0.182494 19.4321 -0.182494 26.2761 0.547969C29.0054 0.839227 31.1609 2.99473 31.4521 5.72371C32.1826 12.5677 32.1826 19.4321 31.4521 26.276C31.1609 29.0053 29.0056 31.1608 26.2764 31.452Z" fill="url(#paint0_linear_181_684)"/>
<path d="M29.7117 6.88109C29.4534 4.45947 27.5408 2.54663 25.1189 2.28808C19.0457 1.64014 12.9543 1.64014 6.8811 2.28808C4.45947 2.54663 2.54663 4.45947 2.28809 6.88109C1.64014 12.9543 1.64014 19.0456 2.28809 25.1186C2.54663 27.5405 4.45947 29.4533 6.8811 29.7116C12.9543 30.3598 19.0457 30.3598 25.1187 29.7116C27.5405 29.4533 29.4534 27.5405 29.7117 25.1186C30.3599 19.0456 30.3599 12.9543 29.7117 6.88109Z" fill="url(#paint1_linear_181_684)"/>
<path d="M0.479492 25.6128C0.501465 25.834 0.52417 26.0552 0.547852 26.2764C0.839111 29.0053 2.99463 31.1608 5.72388 31.452C12.5679 32.1825 19.4324 32.1825 26.2764 31.452C29.0056 31.1608 31.1609 29.0053 31.4521 26.2764C31.4758 26.0552 31.4985 25.834 31.5208 25.6128H0.479492Z" fill="url(#paint2_linear_181_684)"/>
<path d="M27.978 31.0041C27.7498 31.1032 27.5144 31.1879 27.2715 31.2578C26.9509 31.3498 26.6177 31.4157 26.2764 31.4521C25.4119 31.5444 24.5471 31.6247 23.6819 31.6938C20.8445 31.9204 18.0046 32.0207 15.1648 31.9963L4.82397 21.6553C4.4895 21.4455 4.2666 21.0754 4.2666 20.6513V11.3486C4.2666 11.0212 4.39966 10.7251 4.61377 10.5105C4.82837 10.2959 5.125 10.1633 5.4519 10.1633C5.87549 10.1633 6.24634 10.3862 6.45581 10.7207C6.45581 10.7207 9.22168 13.4463 9.28125 13.5034C9.73438 13.2429 10.3215 13.3044 10.7087 13.6916L13.0862 16.0752L17.1118 20.1111L27.978 31.0041Z" fill="url(#paint3_linear_181_684)"/>
<path d="M27.978 31.004C27.7498 31.1032 27.5144 31.1879 27.2715 31.2577C26.9509 31.3497 26.6177 31.4157 26.2764 31.452C25.4119 31.5443 24.5471 31.6246 23.6819 31.6937L13.6433 21.6552C13.3088 21.4455 13.0862 21.0754 13.0862 20.6513V14.4941C13.0862 13.8396 13.6169 13.3088 14.2715 13.3088C14.6948 13.3088 15.0657 13.5315 15.2754 13.866L17.1118 15.7026L30.4226 29.0133C29.8103 29.8822 28.9656 30.5756 27.978 31.004Z" fill="url(#paint4_linear_181_684)"/>
<path d="M31.8865 20.6758C31.8657 21.1082 31.8418 21.5403 31.8149 21.9727C31.7698 22.7092 31.7151 23.4453 31.6523 24.1814L25.6377 18.1665C25.2749 17.9243 25.0359 17.5122 25.0359 17.0435C25.0359 16.5383 25.3132 16.0979 25.7244 15.8669C25.9194 15.7571 26.1445 15.6943 26.3843 15.6943C26.853 15.6943 27.2654 15.9336 27.5076 16.2961L31.8865 20.6758Z" fill="url(#paint5_linear_181_684)"/>
<path d="M31.8149 21.9726C31.7698 22.7092 31.7151 23.4452 31.6523 24.1813C31.5935 24.8796 31.5269 25.578 31.4521 26.2763C31.3442 27.2897 30.9785 28.224 30.4226 29.0133C29.8103 29.8822 28.9656 30.5756 27.978 31.004C27.7498 31.1032 27.5144 31.1879 27.2715 31.2577L17.6689 21.6552C17.3352 21.4455 17.1118 21.0754 17.1118 20.6513V11.3486C17.1118 11.0212 17.2449 10.7251 17.4587 10.5105C17.6733 10.2959 17.9702 10.1633 18.2971 10.1633C18.7207 10.1633 19.0916 10.3862 19.301 10.7207C19.301 10.7207 22.0674 13.4463 22.1265 13.5034C22.5793 13.2429 23.1675 13.3044 23.5544 13.6916L25.7244 15.8669L31.8149 21.9726Z" fill="url(#paint6_linear_181_684)"/>
<path d="M14.2715 21.8367C13.6169 21.8367 13.0862 21.3062 13.0862 20.6516V14.4941C13.0862 13.8396 13.6169 13.3088 14.2715 13.3088C14.926 13.3088 15.4565 13.8396 15.4565 14.4941V20.6516C15.4565 21.3062 14.9258 21.8367 14.2715 21.8367Z" fill="#5CCD11"/>
<path d="M11.3853 19.9316L9.14795 16.9287L10.709 15.3679C11.1719 14.905 11.1719 14.1548 10.709 13.6919C10.2461 13.229 9.49585 13.229 9.03296 13.6919L6.63696 16.0879V11.3484C6.63696 10.6938 6.1062 10.1633 5.45166 10.1633C4.79712 10.1633 4.2666 10.6938 4.2666 11.3484V20.6516C4.2666 21.3062 4.79712 21.8367 5.45166 21.8367C6.1062 21.8367 6.63696 21.3062 6.63696 20.6516V19.4399L7.45435 18.6223L9.5022 21.3713C9.89966 21.8911 10.6436 21.9905 11.1633 21.593C11.6834 21.1956 11.7827 20.4517 11.3853 19.9316Z" fill="#5CCD11"/>
<path d="M24.2307 19.9316L21.9934 16.9287L23.5544 15.3679C24.0171 14.905 24.0171 14.1548 23.5544 13.6919C23.0915 13.229 22.3413 13.229 21.8784 13.6919L19.4824 16.0879V11.3484C19.4824 10.6938 18.9519 10.1633 18.2971 10.1633C17.6426 10.1633 17.1121 10.6938 17.1121 11.3484V20.6516C17.1121 21.3061 17.6426 21.8366 18.2971 21.8366C18.9519 21.8366 19.4824 21.3061 19.4824 20.6516V19.4399L20.2998 18.6225L22.3476 21.3713C22.7451 21.8913 23.489 21.9904 24.009 21.593C24.5288 21.1955 24.6281 20.4516 24.2307 19.9316Z" fill="#5CCD11"/>
<path d="M27.7334 17.0435C27.7334 17.7883 27.1294 18.3923 26.3845 18.3923C25.6396 18.3923 25.0356 17.7883 25.0356 17.0435C25.0356 16.2986 25.6396 15.6946 26.3845 15.6946C27.1294 15.6946 27.7334 16.2986 27.7334 17.0435Z" fill="#5CCD11"/>
<path d="M24.2307 19.9316L21.9934 16.9287L23.5544 15.3679C24.0171 14.905 24.0171 14.1548 23.5544 13.6919C23.0915 13.229 22.3413 13.229 21.8784 13.6919L19.4824 16.0879V11.3484C19.4824 10.6938 18.9519 10.1633 18.2971 10.1633C17.6426 10.1633 17.1121 10.6938 17.1121 11.3484V20.6516C17.1121 21.3061 17.6426 21.8366 18.2971 21.8366C18.9519 21.8366 19.4824 21.3061 19.4824 20.6516V19.4399L20.2998 18.6225L22.3476 21.3713C22.7451 21.8913 23.489 21.9904 24.009 21.593C24.5288 21.1955 24.6281 20.4516 24.2307 19.9316Z" fill="#5CCD11"/>
<defs>
<linearGradient id="paint0_linear_181_684" x1="7.27953" y1="-0.80018" x2="30.3369" y2="43.621" gradientUnits="userSpaceOnUse">
<stop stop-color="#FFFCF8"/>
<stop offset="0.1875" stop-color="#FAF8F6"/>
<stop offset="0.4041" stop-color="#ECEEF2"/>
<stop offset="0.6353" stop-color="#D5DCEA"/>
<stop offset="0.875" stop-color="#B5C4DF"/>
<stop offset="1" stop-color="#A1B5D8"/>
</linearGradient>
<linearGradient id="paint1_linear_181_684" x1="12.2733" y1="13.9037" x2="-41.9384" y2="-16.5905" gradientUnits="userSpaceOnUse">
<stop stop-color="#A1B5D8" stop-opacity="0"/>
<stop offset="0.3094" stop-color="#90A2BD" stop-opacity="0.309804"/>
<stop offset="0.7554" stop-color="#7C8B9C" stop-opacity="0.756863"/>
<stop offset="1" stop-color="#748290"/>
</linearGradient>
<linearGradient id="paint2_linear_181_684" x1="16" y1="28.2478" x2="16" y2="33.2357" gradientUnits="userSpaceOnUse">
<stop stop-color="#A1B5D8" stop-opacity="0"/>
<stop offset="0.3094" stop-color="#90A2BD" stop-opacity="0.309804"/>
<stop offset="0.7554" stop-color="#7C8B9C" stop-opacity="0.756863"/>
<stop offset="1" stop-color="#748290"/>
</linearGradient>
<linearGradient id="paint3_linear_181_684" x1="12.3637" y1="22.3807" x2="-5.20493" y2="8.32579" gradientUnits="userSpaceOnUse">
<stop stop-color="#A1B5D8" stop-opacity="0"/>
<stop offset="0.3094" stop-color="#90A2BD" stop-opacity="0.309804"/>
<stop offset="0.7554" stop-color="#7C8B9C" stop-opacity="0.756863"/>
<stop offset="1" stop-color="#748290"/>
</linearGradient>
<linearGradient id="paint4_linear_181_684" x1="17.9632" y1="21.9773" x2="6.60635" y2="16.7694" gradientUnits="userSpaceOnUse">
<stop stop-color="#A1B5D8" stop-opacity="0"/>
<stop offset="0.3094" stop-color="#90A2BD" stop-opacity="0.309804"/>
<stop offset="0.7554" stop-color="#7C8B9C" stop-opacity="0.756863"/>
<stop offset="1" stop-color="#748290"/>
</linearGradient>
<linearGradient id="paint5_linear_181_684" x1="29.9569" y1="20.6157" x2="22.0657" y2="12.7245" gradientUnits="userSpaceOnUse">
<stop stop-color="#A1B5D8" stop-opacity="0"/>
<stop offset="0.3094" stop-color="#90A2BD" stop-opacity="0.309804"/>
<stop offset="0.7554" stop-color="#7C8B9C" stop-opacity="0.756863"/>
<stop offset="1" stop-color="#748290"/>
</linearGradient>
<linearGradient id="paint6_linear_181_684" x1="24.1503" y1="21.3125" x2="5.57782" y2="12.2144" gradientUnits="userSpaceOnUse">
<stop stop-color="#A1B5D8" stop-opacity="0"/>
<stop offset="0.3094" stop-color="#90A2BD" stop-opacity="0.309804"/>
<stop offset="0.7554" stop-color="#7C8B9C" stop-opacity="0.756863"/>
<stop offset="1" stop-color="#748290"/>
</linearGradient>
</defs>
</svg>
