<svg width="32" height="32" viewBox="0 0 32 32" fill="none" xmlns="http://www.w3.org/2000/svg">
<g clip-path="url(#clip0_181_698)">
<path d="M26.275 31.4499C19.4313 32.1812 12.5688 32.1812 5.725 31.4499C2.99375 31.1562 0.837502 29.0062 0.550002 26.275C-0.181249 19.4312 -0.181249 12.5688 0.550002 5.7251C0.843752 2.99387 3 0.83764 5.725 0.550142C12.5688 -0.181102 19.4313 -0.181102 26.275 0.550142C29.0063 0.84389 31.1625 3.00012 31.45 5.7251C32.1813 12.5688 32.1813 19.4312 31.45 26.275C31.1625 29.0062 29.0063 31.1624 26.275 31.4499Z" fill="#FFFCF8"/>
<path d="M25.15 29.7624C19.0562 30.4124 12.9375 30.4124 6.84375 29.7624C4.41875 29.4999 2.5 27.5812 2.2375 25.1499C1.5875 19.0562 1.5875 12.9375 2.2375 6.84383C2.5 4.41885 4.41875 2.50012 6.85 2.23762C12.9438 1.58762 19.0625 1.58762 25.1562 2.23762C27.5875 2.50012 29.5062 4.41885 29.7687 6.85008C30.4187 12.9438 30.4187 19.0625 29.7687 25.1562C29.5 27.5812 27.5812 29.4999 25.15 29.7624Z" fill="url(#paint0_linear_181_698)"/>
<path d="M37.2125 24.25C37.1937 24.25 19.0125 6.06262 19.0125 6.06262H15.9562V15.3001L14.0312 13.3626C13.7437 13.3188 13.45 13.2938 13.15 13.2938C11.5812 13.2938 10.1125 13.9063 9.00625 15.0126C7.9 16.1188 7.2875 17.5938 7.2875 19.1563C7.2875 20.7188 7.9 22.1937 9.00625 23.3L22.425 36.7186C23.525 37.8249 25 38.4374 26.5625 38.4374C26.8625 38.4374 27.1562 38.4124 27.4437 38.3749C28.675 38.1874 29.8125 37.6186 30.7062 36.7249C31.8062 35.6249 32.4187 34.1624 32.425 32.6062L32.4312 25.6875C32.9625 26.1 33.5437 26.4375 34.1625 26.7C35.1312 27.1062 36.1562 27.3187 37.2125 27.3187C37.2125 27.3125 37.2125 24.25 37.2125 24.25Z" fill="url(#paint1_linear_181_698)"/>
<path d="M26.275 31.4499C19.4313 32.1812 12.5688 32.1812 5.725 31.4499C2.99375 31.1562 0.837502 29.0062 0.550002 26.275C-0.181249 19.4312 -0.181249 12.5688 0.550002 5.7251C0.843752 2.99387 3 0.83764 5.725 0.550142C12.5688 -0.181102 19.4313 -0.181102 26.275 0.550142C29.0063 0.84389 31.1625 3.00012 31.45 5.7251C32.1813 12.5688 32.1813 19.4312 31.45 26.275C31.1625 29.0062 29.0063 31.1624 26.275 31.4499Z" fill="url(#paint2_linear_181_698)"/>
<path d="M20.9125 9.86261C20.3063 9.06262 19.9438 8.06888 19.9438 6.98763H19.9313V6.98138H19.1125C19.3438 8.15013 19.9938 9.16887 20.9125 9.86261Z" fill="#F00044"/>
<path d="M13.15 16.3563C11.6 16.3563 10.35 17.6126 10.35 19.1563C10.35 20.1625 10.8813 21.05 11.6813 21.5438C11.4188 21.1188 11.2688 20.6125 11.2688 20.075C11.2688 18.5251 12.525 17.2751 14.0688 17.2751C14.375 17.2751 14.675 17.3251 14.95 17.4188V14.2813C14.6625 14.2376 14.3688 14.2126 14.0688 14.2126C14.0563 14.2126 14.0438 14.2126 14.0313 14.2126V16.5001C13.75 16.4063 13.4563 16.3563 13.15 16.3563Z" fill="#F00044"/>
<path d="M24.7125 11.7501C24.4 11.7501 24.0938 11.7188 23.8 11.6626V13.8938C22.7438 13.8938 21.7188 13.6876 20.75 13.2751C20.125 13.0126 19.55 12.6751 19.0188 12.2626V19.1813H19.0125C19.0063 20.7375 18.4 22.2 17.2938 23.3C16.4 24.1937 15.2625 24.7687 14.0313 24.95C13.7438 24.9937 13.45 25.0125 13.15 25.0125C11.8 25.0125 10.525 24.5625 9.4875 23.7313C9.625 23.9 9.76875 24.0625 9.91875 24.2188C11.025 25.3312 12.5 25.9375 14.0625 25.9375C14.3625 25.9375 14.6563 25.9125 14.9438 25.875C16.175 25.6875 17.3125 25.1187 18.2063 24.225C19.3063 23.125 19.9188 21.6625 19.925 20.1063H19.9313V13.1813C20.4625 13.5938 21.0438 13.9313 21.6625 14.1938C22.6313 14.6063 23.6563 14.8126 24.7125 14.8126V11.7501Z" fill="url(#paint3_linear_181_698)"/>
<path d="M23.7938 11.6626V10.8314C22.7125 10.8314 21.7125 10.4689 20.9125 9.86261C21.6063 10.7751 22.625 11.4313 23.7938 11.6626Z" fill="#08FFF9"/>
<path d="M14.0625 22.875C14.3687 22.875 14.6687 22.825 14.9437 22.7312C16.0562 22.3625 16.8625 21.3125 16.8625 20.075L16.8687 15.4376V6.98136H19.1125C19.0562 6.68762 19.025 6.38137 19.025 6.06887H19.0125V6.06262H15.9562V14.5251L15.95 19.1625C15.95 20.4 15.1437 21.45 14.0312 21.8188C13.7562 21.9125 13.4562 21.9625 13.15 21.9625C12.6125 21.9625 12.1062 21.8125 11.6812 21.55C12.175 22.3437 13.0562 22.875 14.0625 22.875Z" fill="url(#paint4_linear_181_698)"/>
<path d="M9.91875 15.9313C11.0187 14.8313 12.475 14.2251 14.025 14.2126V13.3626C13.7375 13.3188 13.4438 13.2938 13.1438 13.2938C11.575 13.2938 10.1063 13.9063 9 15.0126C7.89375 16.1188 7.28125 17.5938 7.28125 19.1563C7.28125 20.7188 7.89375 22.1938 9 23.3C9.15625 23.4562 9.31875 23.6 9.4875 23.7312C8.65625 22.6938 8.20625 21.4188 8.20625 20.0688C8.20625 18.5125 8.8125 17.0375 9.91875 15.9313Z" fill="#08FFF9"/>
<path d="M14.025 24.9563C15.2562 24.7688 16.3937 24.2 17.2875 23.3063C18.3875 22.2063 19 20.7438 19.0062 19.1876H19.0125V12.2626C19.5437 12.6751 20.125 13.0126 20.7437 13.2751C21.7125 13.6876 22.7375 13.8938 23.7937 13.8938V11.6626C22.625 11.4376 21.6062 10.7814 20.9062 9.86261C19.9937 9.16887 19.3375 8.15013 19.1062 6.98138H16.8625V15.4438L16.8562 20.0813C16.8562 21.3188 16.05 22.3688 14.9375 22.7375C14.6625 22.8313 14.3625 22.8813 14.0562 22.8813C13.05 22.8813 12.1625 22.35 11.6687 21.55C10.8687 21.0563 10.3375 20.175 10.3375 19.1626C10.3375 17.6126 11.5937 16.3626 13.1375 16.3626C13.4437 16.3626 13.7437 16.4126 14.0187 16.5063V14.2251C12.4687 14.2313 11.0125 14.8438 9.9125 15.9438C8.80625 17.0501 8.19375 18.5251 8.19375 20.0875C8.19375 21.4313 8.64375 22.7125 9.475 23.75C10.5125 24.5813 11.7875 25.0313 13.1375 25.0313C13.4437 25.0188 13.7375 25 14.025 24.9563Z" fill="black"/>
</g>
<defs>
<linearGradient id="paint0_linear_181_698" x1="3.72862" y1="3.72886" x2="28.2711" y2="28.2715" gradientUnits="userSpaceOnUse">
<stop stop-color="#E8EBEE"/>
<stop offset="1" stop-color="#E8EBEE" stop-opacity="0"/>
</linearGradient>
<linearGradient id="paint1_linear_181_698" x1="10.6722" y1="11.3423" x2="33.3801" y2="34.0504" gradientUnits="userSpaceOnUse">
<stop stop-color="#B7C1CE"/>
<stop offset="1" stop-color="#B8C1CF" stop-opacity="0"/>
</linearGradient>
<linearGradient id="paint2_linear_181_698" x1="16.0003" y1="26.0048" x2="16.0003" y2="31.4111" gradientUnits="userSpaceOnUse">
<stop stop-color="#94A1B2" stop-opacity="0"/>
<stop offset="1" stop-color="#94A1B2"/>
</linearGradient>
<linearGradient id="paint3_linear_181_698" x1="15.3022" y1="15.9716" x2="20.8806" y2="21.5501" gradientUnits="userSpaceOnUse">
<stop stop-color="#F00044"/>
<stop offset="1" stop-color="#C70038"/>
</linearGradient>
<linearGradient id="paint4_linear_181_698" x1="11.7527" y1="10.2617" x2="19.7967" y2="18.3057" gradientUnits="userSpaceOnUse">
<stop stop-color="#08FFF9"/>
<stop offset="1" stop-color="#07D4CF"/>
</linearGradient>
<clipPath id="clip0_181_698">
<rect width="32" height="31.9998" fill="white"/>
</clipPath>
</defs>
</svg>
