<svg width="33" height="32" viewBox="0 0 33 32" fill="none" xmlns="http://www.w3.org/2000/svg">
<path d="M26.7766 31.452C19.9326 32.1825 13.0678 32.1825 6.22382 31.452C3.49481 31.1608 1.33929 29.0053 1.04803 26.276C0.317566 19.4321 0.317566 12.5677 1.04803 5.72371C1.33929 2.99473 3.49481 0.839227 6.22382 0.547969C13.0678 -0.182494 19.9323 -0.182494 26.7763 0.547969C29.5056 0.839227 31.6611 2.99473 31.9523 5.72371C32.6828 12.5677 32.6828 19.4321 31.9523 26.276C31.6611 29.0053 29.5058 31.1608 26.7766 31.452Z" fill="url(#paint0_linear_181_604)"/>
<path d="M30.2119 6.88109C29.9536 4.45947 28.041 2.54663 25.6191 2.28808C19.5458 1.64014 13.4545 1.64014 7.38129 2.28808C4.95966 2.54663 3.04681 4.45947 2.78827 6.88109C2.14032 12.9543 2.14032 19.0456 2.78827 25.1186C3.04681 27.5405 4.95966 29.4533 7.38129 29.7116C13.4545 30.3598 19.5458 30.3598 25.6188 29.7116C28.0407 29.4533 29.9536 27.5405 30.2119 25.1186C30.86 19.0456 30.86 12.9543 30.2119 6.88109Z" fill="url(#paint1_linear_181_604)"/>
<path d="M0.979675 25.6128C1.00165 25.834 1.02435 26.0552 1.04803 26.2764C1.33929 29.0053 3.49481 31.1608 6.22406 31.452C13.0681 32.1825 19.9326 32.1825 26.7766 31.452C29.5058 31.1608 31.6611 29.0053 31.9523 26.2764C31.976 26.0552 31.9987 25.834 32.0209 25.6128H0.979675Z" fill="url(#paint2_linear_181_604)"/>
<path d="M17.2677 6C11.8704 6 9 9.51266 9 13.3428C9 15.1192 9.97731 17.3343 11.5417 18.0368C11.7793 18.1455 11.9085 18.0993 11.9615 17.8755C12.0082 17.7055 12.2138 16.8867 12.3135 16.5005C12.3443 16.3767 12.3283 16.2692 12.2298 16.153C11.7104 15.5429 11.298 14.4316 11.298 13.3891C11.298 10.7177 13.3893 8.12385 16.9477 8.12385C20.0248 8.12385 22.1776 10.1539 22.1776 13.0578C22.1776 16.3392 20.468 18.6093 18.2463 18.6093C17.0166 18.6093 16.1009 17.6293 16.3913 16.4167C16.7421 14.9729 17.4302 13.4203 17.4302 12.379C17.4302 11.4452 16.9108 10.6727 15.8498 10.6727C14.598 10.6727 13.5825 11.9315 13.5825 13.6216C13.5825 14.6954 13.9567 15.4204 13.9567 15.4204C13.9567 15.4204 12.7184 20.5007 12.4883 21.4495C12.0993 23.0558 12.5412 25.6571 12.5794 25.8809C12.6027 26.0047 12.7394 26.0434 12.8157 25.9422C12.9375 25.7796 14.4343 23.6108 14.854 22.0432C15.0066 21.472 15.6331 19.1556 15.6331 19.1556C16.0455 19.9119 17.2357 20.5457 18.5035 20.5457C22.2749 20.5457 25 17.1793 25 13.0016C24.9865 8.99639 21.6114 6 17.2677 6Z" fill="#D32F2F"/>
<defs>
<linearGradient id="paint0_linear_181_604" x1="7.77971" y1="-0.80018" x2="30.8371" y2="43.621" gradientUnits="userSpaceOnUse">
<stop stop-color="#FFFCF8"/>
<stop offset="0.1875" stop-color="#FAF8F6"/>
<stop offset="0.4041" stop-color="#ECEEF2"/>
<stop offset="0.6353" stop-color="#D5DCEA"/>
<stop offset="0.875" stop-color="#B5C4DF"/>
<stop offset="1" stop-color="#A1B5D8"/>
</linearGradient>
<linearGradient id="paint1_linear_181_604" x1="12.7735" y1="13.9037" x2="-41.4383" y2="-16.5905" gradientUnits="userSpaceOnUse">
<stop stop-color="#A1B5D8" stop-opacity="0"/>
<stop offset="0.3094" stop-color="#90A2BD" stop-opacity="0.309804"/>
<stop offset="0.7554" stop-color="#7C8B9C" stop-opacity="0.756863"/>
<stop offset="1" stop-color="#748290"/>
</linearGradient>
<linearGradient id="paint2_linear_181_604" x1="16.5002" y1="28.2478" x2="16.5002" y2="33.2357" gradientUnits="userSpaceOnUse">
<stop stop-color="#A1B5D8" stop-opacity="0"/>
<stop offset="0.3094" stop-color="#90A2BD" stop-opacity="0.309804"/>
<stop offset="0.7554" stop-color="#7C8B9C" stop-opacity="0.756863"/>
<stop offset="1" stop-color="#748290"/>
</linearGradient>
</defs>
</svg>
