<svg width="32" height="32" viewBox="0 0 32 32" fill="none" xmlns="http://www.w3.org/2000/svg">
<path d="M26.2764 31.4521C19.4324 32.1826 12.5676 32.1826 5.72363 31.4521C2.99463 31.1609 0.839111 29.0054 0.547852 26.2761C-0.182617 19.4321 -0.182617 12.5676 0.547852 5.72363C0.839111 2.99463 2.99463 0.839111 5.72363 0.547852C12.5676 -0.182617 19.4321 -0.182617 26.2761 0.547852C29.0054 0.839111 31.1609 2.99463 31.4521 5.72363C32.1826 12.5676 32.1826 19.4321 31.4521 26.2761C31.1609 29.0054 29.0056 31.1609 26.2764 31.4521Z" fill="url(#paint0_linear_183_737)"/>
<path d="M28.9096 7.07897C28.6513 4.65734 26.7387 2.74451 24.3168 2.48596C18.2436 1.83801 12.1522 1.83801 6.07899 2.48596C3.65735 2.74451 1.74451 4.65734 1.48596 7.07897C0.838012 13.1522 0.838012 19.2435 1.48596 25.3165C1.74451 27.7383 3.65735 29.6512 6.07899 29.9095C12.1522 30.5577 18.2436 30.5577 24.3166 29.9095C26.7385 29.6512 28.6513 27.7383 28.9096 25.3165C29.5578 19.2435 29.5578 13.1522 28.9096 7.07897Z" fill="url(#paint1_linear_183_737)"/>
<path d="M13.4136 13.5039L13.8033 13.1143C13.9863 12.9312 13.9863 12.6344 13.8033 12.4514L10.4889 9.13693C10.3058 8.95387 10.0091 8.95387 9.826 9.1369L8.83572 10.127C8.83563 10.1271 8.83563 10.1271 8.83553 10.1272C8.39231 10.5704 8.11281 11.1334 8.02728 11.7551C7.94219 12.3735 8.05703 12.9911 8.35938 13.5411C9.54335 15.6947 10.9221 17.5251 12.6984 19.3015C14.4748 21.0778 16.3052 22.4565 18.4588 23.6405C19.0088 23.9429 19.6264 24.0577 20.2448 23.9726C20.8667 23.8871 21.4296 23.6075 21.8729 23.1641L22.863 22.1739C23.046 21.9908 23.046 21.6941 22.8629 21.511L19.5485 18.1966C19.3655 18.0136 19.0687 18.0136 18.8856 18.1966L18.496 18.5863C18.3448 18.7375 18.1133 18.7692 17.9333 18.6635C17.3036 18.2936 16.3443 17.644 15.3501 16.6498C14.3559 15.6556 13.7063 14.6963 13.3365 14.0667C13.2307 13.8866 13.2624 13.6552 13.4136 13.5039Z" fill="#FF7C48"/>
<path d="M19.5485 18.1967C19.3655 18.0136 19.0687 18.0136 18.8856 18.1967L18.496 18.5864C18.3447 18.7376 18.1133 18.7693 17.9332 18.6636C17.3036 18.2937 16.3443 17.6441 15.3501 16.6499L12.6984 19.3016C14.4748 21.0779 16.3052 22.4567 18.4588 23.6406C19.0088 23.943 19.6264 24.0578 20.2448 23.9727C20.8667 23.8872 21.4296 23.6077 21.8729 23.1643L22.863 22.174C23.046 21.991 23.046 21.6942 22.8629 21.5112L19.5485 18.1967Z" fill="#FF4A4A"/>
<path d="M22.8631 22.1742L23.526 21.5113C24.0743 20.963 24.0743 20.0709 23.526 19.5225L21.5373 17.5338C20.989 16.9855 20.0968 16.9855 19.5485 17.5338L18.8856 18.1967L22.8631 22.1742Z" fill="#C30047"/>
<path d="M14.4662 12.4515C15.0145 11.9032 15.0146 11.011 14.4662 10.4627L12.4775 8.47397C11.9292 7.92565 11.037 7.92569 10.4887 8.47397L9.82578 9.13687L13.8033 13.1144L14.4662 12.4515Z" fill="#FF4A4A"/>
<path d="M18.5312 8C18.2723 8 18.0625 8.20988 18.0625 8.46875C18.0625 8.72763 18.2724 8.9375 18.5312 8.9375C21.0338 8.9375 23.0625 10.9662 23.0625 13.4688C23.0625 13.7277 23.2723 13.9375 23.5312 13.9375H23.5312C23.7901 13.9375 24 13.7276 24 13.4687C24 10.4485 21.5516 8 18.5312 8Z" fill="#FFF17D"/>
<path d="M18.5312 9.875C18.2723 9.875 18.0625 10.0849 18.0625 10.3438C18.0625 10.6026 18.2724 10.8125 18.5312 10.8125C19.9983 10.8125 21.1875 12.0018 21.1875 13.4688C21.1875 13.7277 21.3973 13.9375 21.6562 13.9375H21.6562C21.9151 13.9375 22.125 13.7276 22.125 13.4687C22.125 11.484 20.516 9.875 18.5312 9.875Z" fill="#FFF17D"/>
<path d="M18.5312 11.75C18.2724 11.75 18.0625 11.9599 18.0625 12.2188C18.0625 12.4776 18.2724 12.6875 18.5312 12.6875C18.9627 12.6875 19.3125 13.0373 19.3125 13.4688C19.3125 13.7276 19.5224 13.9375 19.7812 13.9375C20.0401 13.9375 20.25 13.7276 20.25 13.4688C20.25 12.5195 19.4805 11.75 18.5312 11.75Z" fill="#FFF17D"/>
<path d="M22.3983 9.60168L21.7354 10.2646C22.5554 11.0846 23.0625 12.2174 23.0625 13.4687C23.0625 13.7275 23.2724 13.9374 23.5313 13.9374H23.5313C23.7902 13.9374 24 13.7275 24 13.4686C24 11.9585 23.3879 10.5913 22.3983 9.60168Z" fill="#FFCD00"/>
<path d="M21.1875 13.4687C21.1875 13.7276 21.3974 13.9375 21.6562 13.9375H21.6563C21.9151 13.9375 22.125 13.7276 22.125 13.4687C22.125 12.4763 21.7228 11.5779 21.0724 10.9275L20.4095 11.5904C20.8902 12.0711 21.1875 12.7352 21.1875 13.4687Z" fill="#FFCD00"/>
<path d="M19.3125 13.4688C19.3125 13.7276 19.5224 13.9375 19.7813 13.9375C20.0401 13.9375 20.25 13.7276 20.25 13.4688C20.25 12.9941 20.0576 12.5644 19.7466 12.2534L19.0837 12.9163C19.2251 13.0577 19.3125 13.253 19.3125 13.4688Z" fill="#FFCD00"/>
<path d="M0 25.6128C0.0219727 25.834 0.0446777 26.0552 0.0683594 26.2764C0.359619 29.0054 2.51514 31.1609 5.24438 31.4521C12.0884 32.1826 18.9529 32.1826 25.7969 31.4521C28.5261 31.1609 30.6814 29.0054 30.9727 26.2764C30.9963 26.0552 31.019 25.834 31.0413 25.6128H0Z" fill="url(#paint2_linear_183_737)"/>
<defs>
<linearGradient id="paint0_linear_183_737" x1="7.27953" y1="-0.800308" x2="30.3372" y2="43.621" gradientUnits="userSpaceOnUse">
<stop stop-color="#FFFCF8"/>
<stop offset="0.1875" stop-color="#FAF8F6"/>
<stop offset="0.4041" stop-color="#ECEEF2"/>
<stop offset="0.6353" stop-color="#D5DCEA"/>
<stop offset="0.875" stop-color="#B5C4DF"/>
<stop offset="1" stop-color="#A1B5D8"/>
</linearGradient>
<linearGradient id="paint1_linear_183_737" x1="11.4712" y1="14.1016" x2="-42.7406" y2="-16.3927" gradientUnits="userSpaceOnUse">
<stop stop-color="#A1B5D8" stop-opacity="0"/>
<stop offset="0.3094" stop-color="#90A2BD" stop-opacity="0.309804"/>
<stop offset="0.7554" stop-color="#7C8B9C" stop-opacity="0.756863"/>
<stop offset="1" stop-color="#748290"/>
</linearGradient>
<linearGradient id="paint2_linear_183_737" x1="15.5205" y1="28.2479" x2="15.5205" y2="33.2359" gradientUnits="userSpaceOnUse">
<stop stop-color="#A1B5D8" stop-opacity="0"/>
<stop offset="0.3094" stop-color="#90A2BD" stop-opacity="0.309804"/>
<stop offset="0.7554" stop-color="#7C8B9C" stop-opacity="0.756863"/>
<stop offset="1" stop-color="#748290"/>
</linearGradient>
</defs>
</svg>
