<svg width="32" height="32" viewBox="0 0 32 32" fill="none" xmlns="http://www.w3.org/2000/svg">
<path d="M26.2764 31.4521C19.4324 32.1826 12.5676 32.1826 5.72363 31.4521C2.99463 31.1609 0.839111 29.0054 0.547852 26.2761C-0.182617 19.4321 -0.182617 12.5676 0.547852 5.72363C0.839111 2.99463 2.99463 0.839111 5.72363 0.547852C12.5676 -0.182617 19.4321 -0.182617 26.2761 0.547852C29.0054 0.839111 31.1609 2.99463 31.4521 5.72363C32.1826 12.5676 32.1826 19.4321 31.4521 26.2761C31.1609 29.0054 29.0056 31.1609 26.2764 31.4521Z" fill="url(#paint0_linear_186_776)"/>
<path d="M29.9096 7.07897C29.6513 4.65734 27.7387 2.74451 25.3168 2.48596C19.2436 1.83801 13.1522 1.83801 7.07899 2.48596C4.65735 2.74451 2.74451 4.65734 2.48596 7.07897C1.83801 13.1522 1.83801 19.2435 2.48596 25.3165C2.74451 27.7383 4.65735 29.6512 7.07899 29.9095C13.1522 30.5577 19.2436 30.5577 25.3166 29.9095C27.7385 29.6512 29.6513 27.7383 29.9096 25.3165C30.5578 19.2435 30.5578 13.1522 29.9096 7.07897Z" fill="url(#paint1_linear_186_776)"/>
<path d="M0.479492 25.6128C0.501465 25.834 0.52417 26.0552 0.547852 26.2764C0.839111 29.0054 2.99463 31.1609 5.72388 31.4521C12.5679 32.1826 19.4324 32.1826 26.2764 31.4521C29.0056 31.1609 31.1609 29.0054 31.4521 26.2764C31.4758 26.0552 31.4985 25.834 31.5208 25.6128H0.479492Z" fill="url(#paint2_linear_186_776)"/>
<path d="M18.3829 21.4822C18.3829 22.7985 17.3159 23.8656 15.9995 23.8656C14.6833 23.8656 13.6162 22.7985 13.6162 21.4822C13.6162 20.1659 14.6833 19.0989 15.9995 19.0989C17.3159 19.0989 18.3829 20.1659 18.3829 21.4822Z" fill="#79E2FF"/>
<path d="M24.9433 13.765C24.6764 13.765 24.4094 13.6646 24.2038 13.463C21.9997 11.3028 19.086 10.1131 15.9997 10.1131C12.9134 10.1131 10.0001 11.3027 7.79609 13.4624C7.37922 13.8709 6.71027 13.864 6.30195 13.4473C5.89347 13.0306 5.90034 12.3616 6.31706 11.9532C8.91837 9.40398 12.3571 8 15.9997 8C19.6425 8 23.0814 9.40429 25.683 11.9539C26.0997 12.3624 26.1065 13.0314 25.698 13.4481C25.4911 13.6591 25.2172 13.765 24.9433 13.765Z" fill="#EFF8FC"/>
<path d="M22.4781 16.2802C22.2112 16.2802 21.9443 16.1798 21.7386 15.9782C20.1969 14.4671 18.1586 13.635 15.9995 13.635C13.8407 13.635 11.8027 14.467 10.2609 15.9777C9.84407 16.3862 9.17527 16.3795 8.76679 15.9626C8.35832 15.5459 8.36518 14.877 8.7819 14.4685C10.7211 12.5684 13.2843 11.522 15.9995 11.522C18.7151 11.522 21.2786 12.5685 23.2177 14.4691C23.6345 14.8776 23.6413 15.5465 23.2328 15.9632C23.0259 16.1744 22.7521 16.2802 22.4781 16.2802Z" fill="#79E2FF"/>
<path d="M20.0129 18.7954C19.746 18.7954 19.4791 18.695 19.2734 18.4934C18.3939 17.6315 17.2312 17.1568 15.9995 17.1568C14.768 17.1568 13.6054 17.6315 12.7259 18.4933C12.3092 18.9016 11.6402 18.8949 11.2319 18.478C10.8234 18.0613 10.8303 17.3924 11.247 16.9839C12.5237 15.7327 14.2116 15.0436 15.9995 15.0436C17.7877 15.0436 19.4756 15.7328 20.7526 16.9843C21.1693 17.3927 21.176 18.0618 20.7676 18.4785C20.5606 18.6897 20.2869 18.7954 20.0129 18.7954Z" fill="#EFF8FC"/>
<defs>
<linearGradient id="paint0_linear_186_776" x1="10.6246" y1="4.49914" x2="18.7183" y2="21.8159" gradientUnits="userSpaceOnUse">
<stop stop-color="#00C3FF"/>
<stop offset="1" stop-color="#00B0ED"/>
</linearGradient>
<linearGradient id="paint1_linear_186_776" x1="22.9656" y1="19.8283" x2="-23.5262" y2="-5.11179" gradientUnits="userSpaceOnUse">
<stop stop-color="#00B0ED" stop-opacity="0"/>
<stop offset="1" stop-color="#00A2CE"/>
</linearGradient>
<linearGradient id="paint2_linear_186_776" x1="16" y1="27.3365" x2="16" y2="31.5295" gradientUnits="userSpaceOnUse">
<stop stop-color="#00B0ED" stop-opacity="0"/>
<stop offset="1" stop-color="#00A2CE"/>
</linearGradient>
</defs>
</svg>
