<svg width="24" height="30" viewBox="0 0 20 25" fill="none" xmlns="http://www.w3.org/2000/svg">
<path d="M6.93038 12.1607C7.08356 12.3245 7.08356 12.5898 6.93038 12.7535L6.78938 12.9043C6.71288 12.986 6.61236 13.0271 6.51202 13.0271C6.41168 13.0271 6.31116 12.986 6.23466 12.9043C6.08147 12.7405 6.08147 12.4752 6.23466 12.3115L6.37565 12.1607C6.52902 11.997 6.777 11.997 6.93039 12.1607H6.93038ZM8.26711 10.1389C8.11393 10.3026 8.11393 10.5679 8.26711 10.7317C8.34362 10.8134 8.44414 10.8545 8.54448 10.8545C8.64482 10.8545 8.74534 10.8134 8.82184 10.7317L11.088 8.30919C11.2412 8.14544 11.2412 7.88015 11.088 7.71639C10.9348 7.55264 10.6867 7.55264 10.5335 7.71639L8.26711 10.1389ZM7.48195 10.9782L7.10739 11.3786C6.9542 11.5419 6.9542 11.8076 7.10739 11.9714C7.18389 12.0531 7.28441 12.0942 7.38475 12.0942C7.48509 12.0942 7.58561 12.0531 7.66211 11.9714L8.03667 11.571C8.18986 11.4076 8.18986 11.1419 8.03667 10.9782C7.88349 10.8144 7.63532 10.8144 7.48193 10.9782H7.48195ZM18.7873 4.91416L15.7548 8.15577L16.0501 8.47142C16.3105 8.74954 16.4456 9.13966 16.4312 9.57009C16.4177 9.96396 16.2789 10.3298 16.0501 10.5743C15.8216 10.8186 15.4794 10.967 15.111 10.9812C14.7077 10.9976 14.3429 10.8524 14.0827 10.5743L13.7874 10.2587L6.09899 18.4778C6.0746 18.5039 6.04836 18.5268 6.02009 18.5472C6.01991 18.5474 6.01954 18.5486 6.0188 18.548V18.5482C5.96484 18.5865 5.90349 18.6143 5.83808 18.6292C5.83752 18.6294 5.83734 18.6294 5.83678 18.6294C5.83678 18.6294 5.8366 18.6294 5.83605 18.6296C5.83586 18.6297 5.83549 18.6297 5.83531 18.6297C5.83457 18.6297 5.8342 18.6303 5.83401 18.6299C5.83383 18.6297 5.83327 18.6294 5.8329 18.6301C5.83216 18.6301 5.8318 18.6307 5.83087 18.6303C5.83087 18.6303 5.83032 18.6305 5.83013 18.6305C5.82995 18.6305 5.82958 18.6307 5.82902 18.6307C4.97976 18.8059 3.55712 19.1495 3.11879 19.3774C2.91054 19.4859 2.39834 19.9103 2.10098 20.1776C2.00212 20.2663 1.87795 20.3022 1.75987 20.3087C1.85281 20.3566 1.93209 20.4334 1.98586 20.5316C2.01413 20.5837 2.68304 21.8188 2.9785 22.7624C3.14666 23.2999 3.07496 23.84 2.77617 24.2836C2.4831 24.7188 1.99545 25 1.53404 25C1.06228 25 0.586474 24.7308 0.293042 24.2972C-0.00649168 23.8546 -0.0794827 23.3106 0.0883027 22.7652C0.373797 21.8366 1.05342 20.5839 1.08227 20.531C1.17577 20.3591 1.34799 20.2532 1.53425 20.2532H1.5385C1.48658 20.2266 1.43817 20.1904 1.39548 20.1444L0.730283 19.4333C0.538476 19.2283 0.525174 18.9004 0.699794 18.6783C0.94962 18.3607 1.34692 17.8135 1.44816 17.5903C1.65955 17.1262 1.98752 15.575 2.14571 14.7009C2.16364 14.592 2.21223 14.4881 2.29058 14.4044L9.97903 6.1852L9.68374 5.86955C9.12976 5.27715 9.22899 4.25256 9.68374 3.76666C9.91232 3.52232 10.2545 3.37397 10.6228 3.35975C11.0271 3.34217 11.3908 3.48854 11.6512 3.76666L11.9464 4.08231L14.9782 0.841861C16.0283 -0.280276 17.7372 -0.280883 18.7873 0.841861C19.2944 1.38349 19.5738 2.10685 19.5738 2.8776C19.5738 3.64875 19.2946 4.37211 18.7875 4.91409L18.7873 4.91416ZM7.64515 15.2435H3.81271L4.09062 15.5406H7.36724L7.64515 15.2435ZM7.10578 15.8201H4.35212L4.63004 16.1172H6.82824L7.10578 15.8201ZM6.56674 16.3967H4.89149L5.16941 16.6937H6.28921L6.56674 16.3967ZM6.02738 16.9729H5.43053L5.68091 17.2407H5.77682L6.02738 16.9729ZM4.46338 17.5202H2.58486C2.55659 17.616 2.52795 17.7051 2.49949 17.7881H4.5081C4.56446 17.7742 4.62156 17.76 4.6757 17.747L4.46338 17.5202ZM3.47665 18.0675H2.3929C2.39105 18.0715 2.38939 18.0768 2.38754 18.0806C2.3528 18.1568 2.30402 18.2443 2.24987 18.3352H2.74104C2.93044 18.2469 3.18822 18.1556 3.47668 18.0675L3.47665 18.0675ZM2.28831 18.6149H2.07193C2.01021 18.7065 1.94849 18.7958 1.88622 18.8827H1.94313C2.05548 18.7911 2.17208 18.7 2.28831 18.6149ZM2.80218 16.6933H3.69009L3.41218 16.3962H2.8704C2.84841 16.4954 2.82549 16.594 2.80221 16.6933H2.80218ZM2.93208 16.1171H3.15068L2.97274 15.9269C2.9598 15.9885 2.94576 16.0531 2.93209 16.1171H2.93208ZM2.73381 16.9728C2.71071 17.0643 2.6878 17.1532 2.66415 17.2407H4.20193L3.95136 16.9728H2.73381ZM7.90659 14.9641L8.18451 14.6671L3.52371 14.6673L3.39861 14.801L3.55124 14.9641L7.9066 14.9639L7.90659 14.9641ZM8.70727 14.1082H4.04666L3.78519 14.3877H8.44566L8.70727 14.1082ZM1.53208 21.9967C1.36282 22.3586 1.18635 22.7704 1.08047 23.1153C1.01856 23.3164 1.03815 23.494 1.13867 23.6425C1.24566 23.8004 1.4177 23.8829 1.53263 23.8829C1.64129 23.8829 1.81609 23.7948 1.92622 23.6313C2.02582 23.4831 2.04596 23.3105 1.98591 23.1179C1.87596 22.7677 1.70005 22.3568 1.53208 21.9967L1.53208 21.9967ZM13.0475 9.46869L10.7173 6.97765L4.83121 13.2702H9.49168L13.0475 9.46869ZM15.3856 9.53012C15.3893 9.41694 15.3616 9.31679 15.3106 9.26227L10.9104 4.55871C10.8626 4.50775 10.7772 4.47792 10.6791 4.47792C10.6728 4.47792 10.6664 4.47812 10.6597 4.47851C10.5431 4.48286 10.4503 4.52809 10.4215 4.55871C10.3446 4.64088 10.2999 4.951 10.4215 5.08097L14.8214 9.78453C14.8726 9.83885 14.9667 9.87006 15.072 9.86472C15.1886 9.86038 15.2814 9.81514 15.3102 9.78453C15.3392 9.75391 15.3813 9.65455 15.3856 9.53011L15.3856 9.53012ZM18.5278 2.87801C18.5278 2.40592 18.3573 1.96325 18.0478 1.63259C17.4055 0.945985 16.3598 0.945985 15.7175 1.63259L12.6848 4.8746L15.0149 7.36564L18.0476 4.12383C18.3573 3.79277 18.5278 3.35051 18.5278 2.87801V2.87801Z" fill="#161616"/>
</svg>
