<svg width="25" height="25" viewBox="0 0 25 25" fill="none" xmlns="http://www.w3.org/2000/svg">
<path d="M2.06715 17.8775H0V24.9999H6.71319V22.9317H2.0671L2.06715 17.8775Z" fill="black"/>
<path d="M22.3222 22.9318H17.4673V25H24.3893V17.8776H22.3221L22.3222 22.9318Z" fill="black"/>
<path d="M5.77734 11.8033H11.307V6.27472H5.77734V11.8033ZM7.87588 8.37232H9.20835V9.70478H7.87588V8.37232Z" fill="black"/>
<path d="M18.6791 6.27472H13.1495V11.8043H18.6791V6.27472ZM16.5806 9.7057H15.2479V8.37324H16.5804L16.5806 9.7057Z" fill="black"/>
<path d="M5.77734 18.7001H11.307V13.1716H5.77734V18.7001ZM7.87588 15.2691H9.20835V16.6016H7.87588V15.2691Z" fill="black"/>
<path d="M18.6371 18.7001V16.8524H16.8218V15.0045H18.6371V13.1567H16.7892V15.0045H15.0067V13.1567H13.1588V15.0045H14.9741V16.8524H16.7892V18.7001H18.6371Z" fill="black"/>
<path d="M13.1264 16.8524H14.9741V18.7001H13.1264V16.8524Z" fill="black"/>
<path d="M17.6015 0V2.0682H22.3222V7.1225H24.3893V0.000105069L17.6015 0Z" fill="black"/>
<path d="M2.06717 2.06821H6.49927V0H0.00012207V7.12242H2.06728L2.06717 2.06821Z" fill="black"/>
</svg>
