<svg width="16" height="12" viewBox="0 0 16 12" fill="none" xmlns="http://www.w3.org/2000/svg">
<path d="M1.71423 1.52588e-05C0.774462 1.52588e-05 0 0.77451 0 1.71424V9.7143C0 10.6542 0.774496 11.4285 1.71423 11.4285H14.2858C15.2255 11.4285 16 10.654 16 9.7143V1.71424C16 0.77434 15.2255 1.52588e-05 14.2858 1.52588e-05H1.71423ZM1.8095 1.14295H14.1844L8.38676 6.494C8.11518 6.74472 7.87203 6.74459 7.60098 6.494L1.8095 1.14295ZM1.14276 2.07755L6.82138 7.33336C7.47669 7.93935 8.51119 7.93844 9.1666 7.33336L14.8571 2.07755V9.71433C14.8571 10.0408 14.6121 10.2858 14.2857 10.2858H1.71412C1.38767 10.2858 1.14266 10.0408 1.14266 9.71433V2.07755H1.14276Z" fill="black"/>
</svg>
