<svg width="30" height="24" viewBox="0 0 32 25" fill="none" xmlns="http://www.w3.org/2000/svg">
<path d="M25.7814 3.05176e-05H5.46872C4.01831 3.05176e-05 2.62732 0.576052 1.60164 1.60167C0.576316 2.62728 0 4.01833 0 5.46874V19.5313C0 20.9817 0.576295 22.3727 1.60164 23.3984C2.62725 24.424 4.01831 25 5.46872 25H25.7814C27.2318 25 28.6228 24.424 29.6484 23.3984C30.6738 22.3728 31.2501 20.9817 31.2501 19.5313V5.46874C31.2501 4.01833 30.6738 2.62735 29.6484 1.60167C28.6228 0.576066 27.2318 3.05176e-05 25.7814 3.05176e-05V3.05176e-05ZM1.56244 5.46867C1.56244 4.43267 1.97416 3.43922 2.70656 2.70652C3.43927 1.97409 4.43272 1.5624 5.46872 1.5624H25.7814C26.8174 1.5624 27.8108 1.97411 28.5435 2.70652C29.276 3.43922 29.6876 4.43267 29.6876 5.46867V18.4452L22.4296 11.1642H22.4294C22.282 11.0178 22.0825 10.9364 21.8749 10.9377C21.667 10.9364 21.4675 11.0178 21.3201 11.1642L13.2808 19.2111L8.36668 14.2892H8.36695C8.22008 14.1413 8.02063 14.0582 7.81218 14.0582C7.60373 14.0582 7.40427 14.1413 7.25741 14.2892L1.60126 19.9454C1.58055 19.8083 1.56747 19.6702 1.56202 19.5315L1.56244 5.46867ZM25.7814 23.4375H5.46872C4.12322 23.4332 2.87467 22.7364 2.16408 21.5936L7.81263 15.9451L12.7268 20.8669V20.8672C12.8734 21.0151 13.0731 21.0983 13.2813 21.0983C13.4897 21.0983 13.6895 21.0151 13.8361 20.8672L21.8753 12.8279L29.547 20.5156C29.3295 21.35 28.8423 22.0892 28.1614 22.6175C27.4802 23.1462 26.6434 23.4344 25.7813 23.4377L25.7814 23.4375Z" fill="black"/>
<path d="M10.9375 10.9376C11.7664 10.9376 12.5612 10.6082 13.1471 10.0221C13.7332 9.43623 14.0626 8.6414 14.0626 7.81249C14.0626 6.98359 13.7332 6.18879 13.1471 5.60264C12.5613 5.01653 11.7664 4.68738 10.9375 4.68738C10.1086 4.68738 9.31385 5.01654 8.7277 5.60264C8.14154 6.18874 7.81244 6.98359 7.81244 7.81249C7.81244 8.6414 8.1416 9.43619 8.7277 10.0221C9.3138 10.6082 10.1086 10.9376 10.9375 10.9376ZM10.9375 6.25011V6.24984C11.352 6.24984 11.7493 6.41469 12.0425 6.70761C12.3354 7.00052 12.5 7.39807 12.5 7.81253C12.5 8.22698 12.3354 8.62428 12.0425 8.91746C11.7493 9.21038 11.352 9.37496 10.9375 9.37496C10.5231 9.37496 10.1255 9.21038 9.83262 8.91746C9.5397 8.62427 9.37485 8.22699 9.37485 7.81253C9.37485 7.39809 9.5397 7.00051 9.83262 6.70761C10.1255 6.41469 10.5231 6.24984 10.9375 6.24984V6.25011Z" fill="black"/>
</svg>
