<svg width="40" height="41" viewBox="0 0 40 41" fill="none" xmlns="http://www.w3.org/2000/svg">
<path d="M39.1832 14.6661C38.8287 15.0338 38.4484 15.3756 38.0451 15.6885V24.9216L33.9814 17.9003C33.912 17.7737 33.823 17.6589 33.7179 17.5596C33.3947 17.2154 32.9426 17.0219 32.4704 17.026C31.9526 17.0285 31.4635 17.2648 31.1394 17.6689C31.0702 17.7479 31.0097 17.834 30.9594 17.9261L27.0694 24.6067L24.6711 20.4595C24.3585 19.9187 23.7813 19.5854 23.157 19.5854C22.5324 19.5854 21.9552 19.9187 21.6426 20.4595L15.6503 30.8691C10.3199 30.2261 5.71606 31.5764 2.34686 32.5667L1.92893 32.689V12.03C1.92893 11.6749 2.21683 11.387 2.5719 11.387H22.948C22.8708 11.1941 22.8065 10.9949 22.7422 10.7954C22.6019 10.3589 22.4965 9.91167 22.4271 9.45813H2.57191C1.8899 9.45813 1.23569 9.7291 0.753202 10.2116C0.270969 10.6939 0 11.348 0 12.03V37.5308C0 38.2128 0.270969 38.867 0.753202 39.3492C1.23572 39.8317 1.88991 40.1027 2.57191 40.1027H37.3956C38.0779 40.1027 38.7321 39.8317 39.2143 39.3492C39.6965 38.8669 39.9675 38.2128 39.9675 37.5308V13.7407C39.7258 14.0654 39.4637 14.3745 39.1833 14.6664L39.1832 14.6661ZM38.0385 37.5303C38.0385 37.7008 37.9708 37.8641 37.8502 37.9849C37.7297 38.1055 37.566 38.1732 37.3955 38.1732H2.57187C2.2168 38.1732 1.9289 37.8853 1.9289 37.5303V34.6946L2.88704 34.4181C6.10193 33.4729 10.4874 32.1807 15.4247 32.7786C15.766 32.863 16.126 32.8343 16.4495 32.6962C16.7732 32.5581 17.0431 32.3185 17.2185 32.0133L23.1723 21.7257L25.5642 25.8345C25.8768 26.3752 26.454 26.7082 27.0786 26.7082C27.703 26.7082 28.2802 26.3753 28.5928 25.8345L32.4506 19.1283L37.9995 28.7281L38.0385 37.5303Z" fill="#5D5FEF"/>
<path d="M11.2009 14.7822C10.0191 14.7822 8.88555 15.2518 8.04997 16.0874C7.21439 16.923 6.74506 18.0566 6.74506 19.2383C6.74506 20.4201 7.21437 21.5533 8.04997 22.3889C8.88555 23.2245 10.0191 23.6941 11.2009 23.6941C12.3826 23.6941 13.5159 23.2245 14.3514 22.3889C15.1873 21.5533 15.6566 20.4201 15.6566 19.2383C15.6549 18.0568 15.185 16.9245 14.3498 16.0894C13.5145 15.2541 12.3821 14.7839 11.2009 14.7822ZM11.2009 21.7648V21.7651C10.5306 21.7651 9.88793 21.4987 9.41404 21.0248C8.94013 20.5509 8.67406 19.9082 8.67406 19.2383C8.67406 18.5681 8.94015 17.9254 9.41404 17.4515C9.88794 16.9776 10.5306 16.7112 11.2009 16.7112C11.8711 16.7112 12.5138 16.9776 12.9877 17.4515C13.4616 17.9254 13.7276 18.5681 13.7276 19.2383C13.7259 19.908 13.4593 20.5495 12.9856 21.0231C12.512 21.4967 11.8704 21.7634 11.2008 21.7652L11.2009 21.7648Z" fill="#5D5FEF"/>
<path d="M27.7507 8.70582C28.1273 9.08213 28.7373 9.08213 29.1139 8.70582L31.1264 6.63537V11.5866C31.1264 12.119 31.5584 12.551 32.0909 12.551C32.6236 12.551 33.0553 12.119 33.0553 11.5866V6.63567L35.0678 8.70612L35.0681 8.70583C35.2438 8.89901 35.4906 9.01239 35.7516 9.02042C36.0128 9.02817 36.2659 8.93 36.4531 8.74802C36.6405 8.56575 36.7459 8.31574 36.7453 8.05453C36.7447 7.79332 36.6385 7.54331 36.4505 7.36218L32.7855 3.56202C32.6038 3.37544 32.3547 3.27039 32.0943 3.27039C31.834 3.27039 31.5846 3.37544 31.4031 3.56202L27.7123 7.34293C27.3466 7.72986 27.3638 8.34009 27.7508 8.70581L27.7507 8.70582Z" fill="#5D5FEF"/>
<path d="M32.098 15.8043C34.1937 15.8043 36.2036 14.9719 37.6856 13.4899C39.1676 12.0079 40 9.99797 40 7.90201C40 5.80627 39.1676 3.79643 37.6856 2.31443C36.2036 0.832417 34.1937 0 32.098 0C30.002 0 27.9921 0.832417 26.5101 2.31443C25.0284 3.79643 24.1957 5.80635 24.1957 7.90201C24.1974 9.99746 25.0304 12.0064 26.5121 13.4879C27.9938 14.9696 30.0025 15.8026 32.098 15.8043ZM32.098 1.92923C33.6822 1.92923 35.2015 2.55843 36.3216 3.67879C37.4419 4.79882 38.0711 6.31816 38.0711 7.90238C38.0711 9.4866 37.4419 11.0059 36.3216 12.1262C35.2015 13.2465 33.6822 13.8758 32.098 13.8758C30.5138 13.8758 28.9945 13.2466 27.8742 12.1262C26.7541 11.0059 26.1246 9.48653 26.1246 7.90238C26.1263 6.31874 26.7561 4.80058 27.8762 3.68055C28.9959 2.56082 30.5143 1.93099 32.098 1.9293V1.92923Z" fill="#5D5FEF"/>
</svg>
