<svg width="16" height="17" viewBox="0 0 16 17" fill="none" xmlns="http://www.w3.org/2000/svg">
<path d="M15.4352 11.5062C14.7648 10.8358 14.0943 10.1653 13.4532 9.52423C12.7245 8.79552 11.7335 8.79552 10.9755 9.52423L10.8881 9.61166C10.5384 9.9323 10.1885 10.282 9.8678 10.632C9.80945 10.6029 9.7513 10.5736 9.69295 10.5445C9.54716 10.4571 9.3723 10.3987 9.25581 10.3113C8.20647 9.64095 7.24452 8.76645 6.31188 7.62967C5.87474 7.10511 5.55408 6.60938 5.34999 6.11391C5.64156 5.82235 5.9329 5.531 6.22449 5.23941L6.4577 5.0062C7.21551 4.2484 7.21551 3.2572 6.4577 2.49945C6.22449 2.26624 6.02056 2.06231 5.78734 1.82909L5.49578 1.53753C5.37927 1.42102 5.29164 1.33339 5.17514 1.21689C4.94193 0.983675 4.70872 0.750468 4.50478 0.54653C3.77607 -0.182177 2.78509 -0.182177 2.02708 0.54653L1.53158 1.04202C1.29837 1.27524 1.06516 1.53752 0.802875 1.77073C0.336456 2.20787 0.0741685 2.79102 0.01582 3.46133C-0.0716092 4.51066 0.219957 5.4433 0.482239 6.14297C1.06515 7.71687 1.96875 9.20358 3.22223 10.7193C4.79613 12.5848 6.66161 14.0422 8.81869 15.0916C10.0138 15.6745 11.0339 15.9661 12.0251 16.0244H12.2583C13.1328 16.0244 13.8032 15.7329 14.3279 15.1209C14.5612 14.8586 14.7944 14.6545 15.0276 14.3922L15.4065 14.0132C16.193 13.2552 16.193 12.2349 15.4352 11.5062L15.4352 11.5062ZM14.7065 13.2842C14.59 13.4008 14.4442 13.5465 14.3275 13.6632C14.0652 13.8965 13.8029 14.1587 13.5697 14.4503C13.1907 14.8584 12.7536 15.0332 12.0832 15.0042C11.238 14.9458 10.3342 14.6835 9.25582 14.188C7.24454 13.197 5.4665 11.8271 3.97999 10.0781C2.81416 8.67899 1.96871 7.27972 1.41489 5.82231C1.09425 4.91877 0.948471 4.24841 1.00682 3.57784C1.0359 3.16978 1.18168 2.84914 1.47324 2.55755C1.73553 2.32434 1.96874 2.06206 2.23105 1.82884C2.4059 1.65399 2.55169 1.5082 2.72654 1.33335C2.9014 1.15849 3.07626 1.07106 3.2511 1.07106C3.42595 1.07106 3.60082 1.15849 3.77567 1.33335C4.00888 1.56656 4.24209 1.79977 4.44603 2.00371C4.56253 2.12021 4.65016 2.20784 4.76667 2.32435L5.05823 2.61591C5.29144 2.84913 5.49537 3.05305 5.72859 3.28627C6.10758 3.66526 6.10758 3.98588 5.72859 4.36471L5.49538 4.59792C5.17474 4.91856 4.85412 5.23918 4.50439 5.55981C4.32953 5.73467 4.15467 6.02623 4.32953 6.43431C4.59182 7.04653 4.97079 7.65854 5.49536 8.32884C6.48635 9.55307 7.53568 10.515 8.70177 11.2437C8.87663 11.3602 9.05149 11.4478 9.22633 11.5352C9.34284 11.5936 9.43047 11.6227 9.5179 11.681C9.83854 11.8559 10.1883 11.7975 10.4798 11.5352C10.8588 11.1562 11.2376 10.7774 11.6166 10.3984L11.704 10.311C12.0537 9.99038 12.4036 9.99038 12.7243 10.311C13.3656 10.9523 14.0359 11.6226 14.7063 12.264C15.0562 12.5555 15.0562 12.9345 14.7065 13.2842L14.7065 13.2842Z" fill="black"/>
</svg>
