<svg width="16" height="16" viewBox="0 0 16 16" fill="none" xmlns="http://www.w3.org/2000/svg">
<path d="M5.44785 15.6077C5.39877 15.6077 5.34969 15.6077 5.30061 15.5586C5.15337 15.5095 5.05521 15.3623 5.05521 15.215V12.0248H1.96319C0.883436 12.0248 0 11.1414 0 10.0616V1.96319C0 0.883437 0.883436 0 1.96319 0H14.0368C15.1166 0 16 0.883437 16 1.96319V10.0123C16 11.092 15.1166 11.9755 14.0368 11.9755H9.57055L5.69325 15.4601C5.64417 15.5583 5.54601 15.6074 5.44785 15.6074V15.6077ZM1.96319 0.785557C1.32515 0.785557 0.785276 1.32544 0.785276 1.96347V10.0126C0.785276 10.6506 1.32515 11.1905 1.96319 11.1905H5.44785C5.64417 11.1905 5.84049 11.3868 5.84049 11.5831V14.2825L9.17791 11.2886C9.22699 11.2396 9.32515 11.1905 9.42331 11.1905H14.0368C14.6748 11.1905 15.2147 10.6506 15.2147 10.0126V1.96347C15.2147 1.32544 14.6748 0.785557 14.0368 0.785557H1.96319Z" fill="black"/>
<path d="M11.8282 3.68155H4.26996C4.07364 3.68155 3.87732 3.48523 3.87732 3.28891C3.87732 3.09259 4.07364 2.89627 4.26996 2.89627H11.7794C11.9757 2.89627 12.1721 3.09259 12.1721 3.28891C12.1721 3.48523 12.0248 3.68155 11.8285 3.68155H11.8282Z" fill="black"/>
<path d="M11.8282 6.38065H4.26996C4.07364 6.38065 3.87732 6.18433 3.87732 5.98801C3.87732 5.7917 4.07364 5.59538 4.26996 5.59538H11.7794C11.9757 5.59538 12.1721 5.7917 12.1721 5.98801C12.1721 6.18433 12.0248 6.38065 11.8285 6.38065H11.8282Z" fill="black"/>
<path d="M9.47241 9.12912H4.26996C4.07364 9.12912 3.87732 8.9328 3.87732 8.73648C3.87732 8.54016 4.07364 8.34384 4.26996 8.34384H9.47241C9.66873 8.34384 9.86505 8.54016 9.86505 8.73648C9.86505 8.9328 9.66873 9.12912 9.47241 9.12912Z" fill="black"/>
</svg>
