<svg width="15" height="14" viewBox="0 0 15 14" fill="none" xmlns="http://www.w3.org/2000/svg">
<path d="M1.60526 7.00385C1.6044 8.33192 2.05204 9.62137 2.87564 10.6632C3.69923 11.7051 4.85051 12.4383 6.14291 12.7441C7.4353 13.0498 8.79307 12.9102 9.99619 12.3478C11.1993 11.7854 12.1773 10.8332 12.7716 9.64553" stroke="black" stroke-width="1.5" stroke-linecap="round" stroke-linejoin="round"/>
<path d="M9.60104 9.64551H12.7716V12.816" stroke="black" stroke-width="1.5" stroke-linecap="round" stroke-linejoin="round"/>
<path d="M13.3947 7.00384C13.3956 5.67577 12.948 4.38632 12.1244 3.34446C11.3008 2.3026 10.1495 1.56938 8.8571 1.26363C7.5647 0.957883 6.20693 1.09752 5.00381 1.6599C3.8007 2.22229 2.82273 3.17448 2.22842 4.36216" stroke="black" stroke-width="1.5" stroke-linecap="round" stroke-linejoin="round"/>
<path d="M5.39896 4.36218H2.22842V1.19165" stroke="black" stroke-width="1.5" stroke-linecap="round" stroke-linejoin="round"/>
</svg>
