<svg width="16" height="12" viewBox="0 0 16 12" fill="none" xmlns="http://www.w3.org/2000/svg">
<path d="M0.390402 1.44146C-0.129898 1.44146 -0.129898 0.651288 0.390402 0.651288H10.0369C10.5572 0.651288 10.5572 1.44146 10.0369 1.44146H0.390402ZM13.9218 1.85707H15.2097V1.32516C15.2097 0.605614 13.9218 0.605614 13.9218 1.32516V1.85707ZM15.2097 2.64747H13.9218V9.34354H15.2097V2.64747ZM13.227 10.002C13.1686 9.93126 13.1326 9.83026 13.1327 9.73881L13.1315 1.325C13.1315 -0.441688 16 -0.441688 16 1.325V9.73881C16 9.83176 15.9638 9.93011 15.9044 10.0021L14.8991 11.5907C14.742 11.8403 14.3793 11.8323 14.2293 11.5859L13.227 10.002ZM14.8884 10.1338H14.243L14.5658 10.644L14.8885 10.1338H14.8884ZM0.390225 11.4476C-0.130075 11.4476 -0.130075 10.6572 0.390225 10.6572H11.6791C12.1994 10.6572 12.1994 11.4476 11.6791 11.4476H0.390225ZM0.390225 9.44627C-0.130075 9.44627 -0.130075 8.6561 0.390225 8.6561H10.0368C10.5571 8.6561 10.5571 9.44627 10.0368 9.44627H0.390225ZM0.390225 7.44514C-0.130075 7.44514 -0.130075 6.65497 0.390225 6.65497H11.6791C12.1994 6.65497 12.1994 7.44514 11.6791 7.44514H0.390225ZM0.390225 5.44401C-0.130075 5.44401 -0.130075 4.6536 0.390225 4.6536H10.0368C10.5571 4.6536 10.5571 5.44401 10.0368 5.44401H0.390225ZM0.390225 3.44287C-0.130075 3.44287 -0.130075 2.65247 0.390225 2.65247H11.6791C12.1994 2.65247 12.1994 3.44287 11.6791 3.44287H0.390225Z" fill="black"/>
</svg>
