<svg width="16" height="16" viewBox="0 0 16 16" fill="none" xmlns="http://www.w3.org/2000/svg">
<path d="M15.98 7.37994C15.98 7.45988 16 7.53996 16 7.6199V7.99994V8.37998C16 8.45992 15.98 8.54 15.98 8.61994V8.73992C15.6 12.8 12.16 16 7.99999 16C3.95997 16 0.599943 12.98 0.0799394 9.07992V9.05998C0.0599897 8.95995 0.0599893 8.85992 0.0398996 8.73994C0.0398996 8.6999 0.0398997 8.63991 0.0199499 8.59987C0.0199499 8.51993 0 8.4598 0 8.37986V7.99982V7.61978C0 7.53984 1.34111e-07 7.47971 0.0199499 7.39977C0.0199499 7.35973 0.0199498 7.29974 0.0398996 7.2597C0.0398996 7.15967 0.0598497 7.05964 0.0799394 6.95976V6.91972C0.600014 3.01968 3.95997 -4.0686e-07 7.99999 -4.0686e-07C12.16 -4.0686e-07 15.6 3.20011 15.96 7.26008C15.96 7.29998 15.9801 7.34002 15.9801 7.38006L15.98 7.37994ZM14.5199 4.73984C14.5 4.67985 14.4599 4.61986 14.44 4.55987C14.42 4.51983 14.38 4.45984 14.3601 4.4198C14.32 4.35981 14.3001 4.29982 14.26 4.25978C14.2401 4.21974 14.2 4.17984 14.1801 4.11972C14.14 4.05973 14.1201 4.01969 14.0801 3.9597C14.0601 3.91966 14.0201 3.87976 14.0001 3.83972C13.9601 3.77973 13.9202 3.73969 13.8801 3.6797C13.8401 3.63966 13.8201 3.59976 13.7801 3.55972C13.7401 3.49973 13.7002 3.45969 13.6601 3.3997C13.6201 3.35966 13.6001 3.31976 13.5601 3.27972C13.5201 3.23968 13.4802 3.17969 13.4401 3.13965C13.4001 3.09961 13.3801 3.05971 13.3401 3.01967C13.3 2.97963 13.2601 2.91964 13.2 2.8796L13.1 2.77957C13.06 2.73953 13 2.69963 12.9599 2.6395C12.9199 2.59946 12.88 2.57951 12.8399 2.53947C12.7999 2.49943 12.7399 2.45953 12.6999 2.41949C12.6598 2.37945 12.6199 2.3595 12.5799 2.31946C12.5199 2.27942 12.4799 2.23952 12.4199 2.19948C12.3798 2.15944 12.3399 2.13949 12.2999 2.09945C12.2399 2.05941 12.1999 2.01951 12.1399 1.97947C12.0998 1.95952 12.0599 1.91948 12.0199 1.89953C11.9599 1.85949 11.8999 1.81959 11.8599 1.7995C11.8198 1.77955 11.7799 1.73951 11.7399 1.71956C11.6799 1.67952 11.6199 1.65957 11.5599 1.61953C11.5199 1.59958 11.48 1.57949 11.4199 1.53959C11.3599 1.49955 11.2999 1.4796 11.2399 1.43956C11.1999 1.41961 11.16 1.39952 11.0998 1.37957C11.0398 1.35962 10.9798 1.31958 10.9199 1.29963C10.8798 1.27968 10.8399 1.25959 10.7798 1.23964C10.7198 1.21969 10.6598 1.17965 10.5998 1.1597C10.5598 1.13975 10.4998 1.11966 10.4597 1.09971C10.4398 1.09971 10.4398 1.09971 10.4197 1.07976C11.2997 1.95981 11.9996 3.29978 12.3998 4.8998H14.6198C14.5998 4.87985 14.5998 4.85976 14.5797 4.81986C14.5799 4.83981 14.54 4.77982 14.5199 4.73978L14.5199 4.73984ZM0.759837 7.07987V7.13986C0.759837 7.2198 0.739887 7.27993 0.739887 7.35987C0.739887 7.41986 0.739887 7.4599 0.719937 7.51989V7.67991V8.01989V8.35988V8.5199C0.719937 8.57989 0.719937 8.61993 0.739887 8.67992C0.739887 8.75986 0.759837 8.83994 0.759837 8.89993V8.93997C0.819826 9.42001 0.939806 9.89994 1.09982 10.38H3.43984C3.29977 9.64001 3.23978 8.86 3.23978 8.03996C3.23978 7.21991 3.31972 6.4399 3.43984 5.69993H1.09982C0.939802 6.11986 0.819826 6.59991 0.759837 7.07984V7.07987ZM3.91986 7.99995C3.91986 8.81999 3.9998 9.6 4.13987 10.34H7.63989V5.65992H4.13987C3.9998 6.3999 3.91986 7.17991 3.91986 7.99995V7.99995ZM10.6199 14.82C10.6799 14.8001 10.7399 14.78 10.7999 14.7401C10.8399 14.7201 10.8999 14.7 10.9399 14.6801C10.9999 14.6601 11.0599 14.6201 11.1199 14.6002C11.16 14.5802 11.2199 14.5601 11.26 14.5402C11.32 14.5202 11.38 14.4802 11.44 14.4602C11.48 14.4403 11.5199 14.4202 11.58 14.3803C11.64 14.3402 11.7 14.3203 11.74 14.2803C11.7801 14.2603 11.82 14.2203 11.8801 14.2003C11.9401 14.1603 11.9801 14.1403 12.0401 14.1003C12.0802 14.0803 12.1201 14.0403 12.1601 14.0203C12.2201 13.9803 12.2601 13.9404 12.3201 13.9004C12.3602 13.8603 12.4001 13.8404 12.4401 13.8003C12.5001 13.7603 12.5401 13.7204 12.6001 13.6804C12.6402 13.6403 12.6801 13.6204 12.7201 13.5803C12.7601 13.5403 12.8201 13.5004 12.8602 13.4603C12.9002 13.4203 12.9401 13.4004 12.9801 13.3603C13.0202 13.3203 13.0802 13.2804 13.1202 13.2202C13.1603 13.1802 13.2002 13.1403 13.2402 13.1202C13.2802 13.0802 13.3201 13.0202 13.3803 12.9801C13.4203 12.9401 13.4602 12.9002 13.4803 12.8602C13.5203 12.8201 13.5602 12.7601 13.6003 12.7201C13.6403 12.6801 13.6603 12.6402 13.7003 12.6001C13.7403 12.5601 13.7802 12.5001 13.8203 12.46C13.8603 12.42 13.8803 12.3801 13.9203 12.3401C13.9604 12.2801 14.0003 12.24 14.0203 12.18C14.0403 12.14 14.0803 12.1001 14.1003 12.0601C14.1403 12.0001 14.1603 11.96 14.2003 11.9C14.2203 11.86 14.2603 11.8201 14.2803 11.76C14.3203 11.7 14.3402 11.6599 14.3803 11.6C14.4002 11.5599 14.4403 11.4999 14.4602 11.4599C14.4802 11.3999 14.5202 11.3399 14.5402 11.2999C14.5601 11.2598 14.5802 11.1998 14.6201 11.1598C14.6401 11.1399 14.6401 11.1198 14.6601 11.0799H12.42C12.0201 12.6799 11.32 14.0199 10.44 14.8999C10.4599 14.8999 10.4599 14.8999 10.48 14.88C10.5199 14.8399 10.5599 14.82 10.6199 14.82L10.6199 14.82ZM12.0799 7.99995C12.0799 7.17991 11.9999 6.3999 11.8599 5.65992H8.35985V10.34H11.8599C11.9999 9.6 12.0799 8.81999 12.0799 7.99995ZM11.7 4.95988C11.0999 2.63982 9.84004 0.959838 8.35996 0.739835L8.35982 4.95988H11.7ZM8.35985 11.0399V15.26C9.8399 15.04 11.0998 13.36 11.6999 11.0399H8.35985ZM7.63999 15.26V11.0399H4.29986C4.8999 13.38 6.15995 15.04 7.63999 15.26ZM7.63999 4.95988V0.739835C6.15995 0.959845 4.90001 2.63982 4.29997 4.95988H7.63999ZM15.28 7.65998C15.28 7.59999 15.28 7.55995 15.2601 7.49996C15.2601 7.45992 15.2601 7.39993 15.2401 7.35989C15.2401 7.27995 15.2202 7.19987 15.2202 7.11993V7.09998C15.1602 6.61994 15.0402 6.11994 14.8802 5.65997H12.56C12.7001 6.39994 12.7601 7.17995 12.7601 7.99999C12.7601 8.82004 12.6801 9.60005 12.56 10.34H14.9C15.0601 9.85998 15.18 9.38004 15.24 8.9V8.88005C15.26 8.80011 15.26 8.72003 15.26 8.64009C15.26 8.60005 15.26 8.54006 15.2799 8.50002C15.2799 8.44003 15.2799 8.39999 15.2999 8.34V8.00002C15.3 7.88004 15.3 7.78001 15.2801 7.66003L15.28 7.65998ZM5.55998 14.8801C4.67994 14 3.98004 12.66 3.57993 11.06H1.37998C2.20003 12.8201 3.70004 14.2201 5.56001 14.8801H5.55998ZM1.37995 4.95995H3.59996C3.99993 3.3599 4.70001 2.01992 5.58001 1.13991C3.69996 1.77999 2.19995 3.17997 1.37998 4.95995H1.37995Z" fill="#161616"/>
</svg>
